<mxfile host="Electron" modified="2024-06-01T01:10:04.988Z" agent="Mozilla/5.0 (Macintosh; Intel Mac OS X 10_15_7) AppleWebKit/537.36 (KHTML, like Gecko) draw.io/22.1.16 Chrome/120.0.6099.109 Electron/28.1.0 Safari/537.36" etag="bl_iXc6dwllYZ564BCIv" version="22.1.16" type="device" pages="15">
  <diagram name="Page-1" id="z0LnPM7LvrhHCoUErtaT">
    <mxGraphModel dx="1306" dy="774" grid="0" gridSize="10" guides="1" tooltips="1" connect="1" arrows="1" fold="1" page="0" pageScale="1" pageWidth="1100" pageHeight="850" math="0" shadow="0">
      <root>
        <mxCell id="0" />
        <mxCell id="1" parent="0" />
        <mxCell id="J5XPYp5DwSgqfuJz45dS-1" value="Executors" style="whiteSpace=wrap;strokeWidth=2;verticalAlign=top;sketch=1;curveFitting=1;jiggle=2;fillColor=#fff2cc;strokeColor=#d6b656;fontStyle=1" parent="1" vertex="1">
          <mxGeometry x="336" y="20" width="272" height="354" as="geometry" />
        </mxCell>
        <mxCell id="J5XPYp5DwSgqfuJz45dS-2" value="Executor 1" style="rounded=1;absoluteArcSize=1;arcSize=14;whiteSpace=wrap;strokeWidth=2;sketch=1;curveFitting=1;jiggle=2;fillColor=#e1d5e7;strokeColor=#9673a6;fontStyle=1" parent="1" vertex="1">
          <mxGeometry x="542" y="104" width="60" height="34" as="geometry" />
        </mxCell>
        <mxCell id="J5XPYp5DwSgqfuJz45dS-25" value="reports to" style="edgeStyle=orthogonalEdgeStyle;rounded=0;orthogonalLoop=1;jettySize=auto;html=1;exitX=0.75;exitY=1;exitDx=0;exitDy=0;entryX=0.75;entryY=0;entryDx=0;entryDy=0;startArrow=classic;startFill=1;strokeWidth=2;sketch=1;curveFitting=1;jiggle=2;fontStyle=1" parent="1" source="J5XPYp5DwSgqfuJz45dS-3" target="J5XPYp5DwSgqfuJz45dS-9" edge="1">
          <mxGeometry relative="1" as="geometry" />
        </mxCell>
        <mxCell id="J5XPYp5DwSgqfuJz45dS-3" value="Executor 2" style="rounded=1;absoluteArcSize=1;arcSize=14;whiteSpace=wrap;strokeWidth=2;sketch=1;curveFitting=1;jiggle=2;fillColor=#e1d5e7;strokeColor=#9673a6;fontStyle=1" parent="1" vertex="1">
          <mxGeometry x="479" y="175" width="63" height="34" as="geometry" />
        </mxCell>
        <mxCell id="J5XPYp5DwSgqfuJz45dS-26" value="reports to" style="edgeStyle=orthogonalEdgeStyle;rounded=0;orthogonalLoop=1;jettySize=auto;html=1;exitX=0.75;exitY=1;exitDx=0;exitDy=0;startArrow=classic;startFill=1;strokeWidth=2;sketch=1;curveFitting=1;jiggle=2;fontStyle=1" parent="1" source="J5XPYp5DwSgqfuJz45dS-4" edge="1">
          <mxGeometry relative="1" as="geometry">
            <mxPoint x="463" y="420" as="targetPoint" />
          </mxGeometry>
        </mxCell>
        <mxCell id="J5XPYp5DwSgqfuJz45dS-4" value="Executor 3" style="rounded=1;absoluteArcSize=1;arcSize=14;whiteSpace=wrap;strokeWidth=2;sketch=1;curveFitting=1;jiggle=2;fillColor=#e1d5e7;strokeColor=#9673a6;fontStyle=1" parent="1" vertex="1">
          <mxGeometry x="415" y="241" width="64" height="34" as="geometry" />
        </mxCell>
        <mxCell id="J5XPYp5DwSgqfuJz45dS-5" value="Executor 4" style="rounded=1;absoluteArcSize=1;arcSize=14;whiteSpace=wrap;strokeWidth=2;sketch=1;curveFitting=1;jiggle=2;fillColor=#e1d5e7;strokeColor=#9673a6;fontStyle=1" parent="1" vertex="1">
          <mxGeometry x="345" y="320" width="70" height="34" as="geometry" />
        </mxCell>
        <mxCell id="J5XPYp5DwSgqfuJz45dS-6" value="Driver" style="whiteSpace=wrap;strokeWidth=2;verticalAlign=top;sketch=1;curveFitting=1;jiggle=2;fillColor=#dae8fc;strokeColor=#6c8ebf;fontStyle=1" parent="1" vertex="1">
          <mxGeometry x="6" y="15" width="160" height="441" as="geometry" />
        </mxCell>
        <mxCell id="J5XPYp5DwSgqfuJz45dS-19" value="Interacts" style="edgeStyle=orthogonalEdgeStyle;rounded=0;orthogonalLoop=1;jettySize=auto;html=1;labelBackgroundColor=#CCCCCC;startArrow=classic;startFill=1;strokeWidth=2;sketch=1;curveFitting=1;jiggle=2;fontStyle=1" parent="1" source="J5XPYp5DwSgqfuJz45dS-7" target="J5XPYp5DwSgqfuJz45dS-8" edge="1">
          <mxGeometry relative="1" as="geometry" />
        </mxCell>
        <mxCell id="J5XPYp5DwSgqfuJz45dS-7" value="Spark Session" style="rounded=1;absoluteArcSize=1;arcSize=14;whiteSpace=wrap;strokeWidth=2;sketch=1;curveFitting=1;jiggle=2;fillColor=#b1ddf0;strokeColor=#10739e;fontStyle=1" parent="1" vertex="1">
          <mxGeometry x="28" y="180" width="110" height="34" as="geometry" />
        </mxCell>
        <mxCell id="J5XPYp5DwSgqfuJz45dS-20" value="Communitates with" style="edgeStyle=orthogonalEdgeStyle;rounded=0;orthogonalLoop=1;jettySize=auto;html=1;entryX=0;entryY=0.5;entryDx=0;entryDy=0;curved=1;dashed=1;startArrow=classic;startFill=1;sketch=1;curveFitting=1;jiggle=2;fontStyle=1" parent="1" source="J5XPYp5DwSgqfuJz45dS-8" target="J5XPYp5DwSgqfuJz45dS-9" edge="1">
          <mxGeometry relative="1" as="geometry" />
        </mxCell>
        <mxCell id="J5XPYp5DwSgqfuJz45dS-8" value="User Code" style="rounded=1;absoluteArcSize=1;arcSize=14;whiteSpace=wrap;strokeWidth=2;sketch=1;curveFitting=1;jiggle=2;fillColor=#f8cecc;strokeColor=#b85450;fontStyle=1" parent="1" vertex="1">
          <mxGeometry x="39" y="387" width="87" height="34" as="geometry" />
        </mxCell>
        <mxCell id="J5XPYp5DwSgqfuJz45dS-9" value="Cluster Manager" style="rounded=1;absoluteArcSize=1;arcSize=14;whiteSpace=wrap;strokeWidth=2;sketch=1;curveFitting=1;jiggle=2;fillColor=#d5e8d4;strokeColor=#82b366;fontStyle=1" parent="1" vertex="1">
          <mxGeometry x="239" y="422" width="383" height="34" as="geometry" />
        </mxCell>
        <mxCell id="J5XPYp5DwSgqfuJz45dS-10" value="communicates with" style="curved=1;dashed=1;dashPattern=2 3;startArrow=none;endArrow=none;exitX=0.599273044819452;exitY=0.007352941176470588;entryX=-0.002489697802197802;entryY=0.49264705882352944;rounded=0;labelBackgroundColor=#CCCCCC;sketch=1;curveFitting=1;jiggle=2;fontStyle=1" parent="1" source="J5XPYp5DwSgqfuJz45dS-7" target="J5XPYp5DwSgqfuJz45dS-2" edge="1">
          <mxGeometry relative="1" as="geometry">
            <Array as="points">
              <mxPoint x="180" y="72" />
            </Array>
          </mxGeometry>
        </mxCell>
        <mxCell id="J5XPYp5DwSgqfuJz45dS-11" value="communicates with" style="curved=1;dashed=1;dashPattern=2 3;startArrow=none;endArrow=none;exitX=0.7942679980947197;exitY=0.007352941176470588;entryX=-0.002489697802197802;entryY=0.47794117647058826;rounded=0;labelBackgroundColor=#CCCCCC;sketch=1;curveFitting=1;jiggle=2;fontStyle=1" parent="1" source="J5XPYp5DwSgqfuJz45dS-7" target="J5XPYp5DwSgqfuJz45dS-3" edge="1">
          <mxGeometry relative="1" as="geometry">
            <Array as="points">
              <mxPoint x="180" y="155" />
            </Array>
          </mxGeometry>
        </mxCell>
        <mxCell id="J5XPYp5DwSgqfuJz45dS-12" value="communicates with" style="curved=1;dashed=1;dashPattern=2 3;startArrow=none;endArrow=none;exitX=0.7942679980947197;exitY=0.9926470588235294;entryX=-0.002489697802197802;entryY=0.49264705882352944;rounded=0;labelBackgroundColor=#CCCCCC;sketch=1;curveFitting=1;jiggle=2;fontStyle=1" parent="1" source="J5XPYp5DwSgqfuJz45dS-7" target="J5XPYp5DwSgqfuJz45dS-4" edge="1">
          <mxGeometry relative="1" as="geometry">
            <Array as="points">
              <mxPoint x="180" y="239" />
            </Array>
          </mxGeometry>
        </mxCell>
        <mxCell id="J5XPYp5DwSgqfuJz45dS-13" value="communicates with" style="curved=1;dashed=1;dashPattern=2 3;startArrow=none;endArrow=none;exitX=0.599273044819452;exitY=0.9926470588235294;entryX=-0.002489697802197802;entryY=0.47794117647058826;rounded=0;labelBackgroundColor=#CCCCCC;sketch=1;curveFitting=1;jiggle=2;fontStyle=1" parent="1" source="J5XPYp5DwSgqfuJz45dS-7" target="J5XPYp5DwSgqfuJz45dS-5" edge="1">
          <mxGeometry relative="1" as="geometry">
            <Array as="points">
              <mxPoint x="180" y="322" />
            </Array>
          </mxGeometry>
        </mxCell>
        <mxCell id="J5XPYp5DwSgqfuJz45dS-24" value="reports to" style="edgeStyle=orthogonalEdgeStyle;rounded=0;orthogonalLoop=1;jettySize=auto;html=1;exitX=0.75;exitY=1;exitDx=0;exitDy=0;entryX=0.909;entryY=-0.039;entryDx=0;entryDy=0;entryPerimeter=0;startArrow=classic;startFill=1;strokeWidth=2;sketch=1;curveFitting=1;jiggle=2;fontStyle=1" parent="1" source="J5XPYp5DwSgqfuJz45dS-2" target="J5XPYp5DwSgqfuJz45dS-9" edge="1">
          <mxGeometry relative="1" as="geometry" />
        </mxCell>
        <mxCell id="J5XPYp5DwSgqfuJz45dS-27" value="reports to" style="edgeStyle=orthogonalEdgeStyle;rounded=0;orthogonalLoop=1;jettySize=auto;html=1;exitX=0.75;exitY=1;exitDx=0;exitDy=0;entryX=0.413;entryY=-0.039;entryDx=0;entryDy=0;entryPerimeter=0;startArrow=classic;startFill=1;strokeWidth=2;sketch=1;curveFitting=1;jiggle=2;fontStyle=1" parent="1" source="J5XPYp5DwSgqfuJz45dS-5" target="J5XPYp5DwSgqfuJz45dS-9" edge="1">
          <mxGeometry relative="1" as="geometry" />
        </mxCell>
      </root>
    </mxGraphModel>
  </diagram>
  <diagram id="cgiCDnwieyx7dzQvwj_A" name="Page-2">
    <mxGraphModel dx="2074" dy="1134" grid="0" gridSize="10" guides="1" tooltips="1" connect="1" arrows="1" fold="1" page="0" pageScale="1" pageWidth="1100" pageHeight="850" math="0" shadow="0">
      <root>
        <mxCell id="0" />
        <mxCell id="1" parent="0" />
        <mxCell id="aT3DeLU2Pqq4UQU0p8eB-12" value="&lt;font color=&quot;#000000&quot; style=&quot;font-size: 15px;&quot;&gt;Cluster&lt;br&gt;Workers Nodes&lt;/font&gt;" style="fillColor=none;strokeColor=#5A6C86;dashed=1;verticalAlign=top;fontStyle=0;fontColor=#5A6C86;whiteSpace=wrap;html=1;shadow=0;sketch=1;curveFitting=1;jiggle=2;" parent="1" vertex="1">
          <mxGeometry x="370" y="56" width="157" height="571" as="geometry" />
        </mxCell>
        <mxCell id="aT3DeLU2Pqq4UQU0p8eB-13" value="&lt;font color=&quot;#000000&quot; style=&quot;font-size: 15px;&quot;&gt;Cluster&lt;br&gt;Driver Nodes&lt;/font&gt;" style="fillColor=none;strokeColor=#5A6C86;dashed=1;verticalAlign=top;fontStyle=0;fontColor=#5A6C86;whiteSpace=wrap;html=1;shadow=0;sketch=1;curveFitting=1;jiggle=2;" parent="1" vertex="1">
          <mxGeometry x="111.5" y="244" width="157" height="220" as="geometry" />
        </mxCell>
        <mxCell id="aT3DeLU2Pqq4UQU0p8eB-5" style="edgeStyle=orthogonalEdgeStyle;rounded=0;orthogonalLoop=1;jettySize=auto;html=1;entryX=0;entryY=0.5;entryDx=0;entryDy=0;curved=1;endArrow=none;endFill=0;shadow=0;sketch=1;curveFitting=1;jiggle=2;" parent="1" source="aT3DeLU2Pqq4UQU0p8eB-1" target="aT3DeLU2Pqq4UQU0p8eB-2" edge="1">
          <mxGeometry relative="1" as="geometry" />
        </mxCell>
        <mxCell id="aT3DeLU2Pqq4UQU0p8eB-6" style="edgeStyle=orthogonalEdgeStyle;rounded=0;orthogonalLoop=1;jettySize=auto;html=1;entryX=0;entryY=0.5;entryDx=0;entryDy=0;curved=1;endArrow=none;endFill=0;shadow=0;sketch=1;curveFitting=1;jiggle=2;" parent="1" source="aT3DeLU2Pqq4UQU0p8eB-1" target="aT3DeLU2Pqq4UQU0p8eB-3" edge="1">
          <mxGeometry relative="1" as="geometry" />
        </mxCell>
        <mxCell id="aT3DeLU2Pqq4UQU0p8eB-1" value="" style="whiteSpace=wrap;html=1;aspect=fixed;sketch=1;curveFitting=1;jiggle=2;shadow=0;" parent="1" vertex="1">
          <mxGeometry x="140" y="300" width="100" height="100" as="geometry" />
        </mxCell>
        <mxCell id="aT3DeLU2Pqq4UQU0p8eB-2" value="" style="whiteSpace=wrap;html=1;aspect=fixed;sketch=1;curveFitting=1;jiggle=2;shadow=0;" parent="1" vertex="1">
          <mxGeometry x="400" y="120" width="100" height="100" as="geometry" />
        </mxCell>
        <mxCell id="aT3DeLU2Pqq4UQU0p8eB-3" value="" style="whiteSpace=wrap;html=1;aspect=fixed;sketch=1;curveFitting=1;jiggle=2;shadow=0;" parent="1" vertex="1">
          <mxGeometry x="400" y="300" width="100" height="100" as="geometry" />
        </mxCell>
        <mxCell id="aT3DeLU2Pqq4UQU0p8eB-4" value="" style="whiteSpace=wrap;html=1;aspect=fixed;sketch=1;curveFitting=1;jiggle=2;shadow=0;" parent="1" vertex="1">
          <mxGeometry x="400" y="480" width="100" height="100" as="geometry" />
        </mxCell>
        <mxCell id="aT3DeLU2Pqq4UQU0p8eB-7" style="edgeStyle=orthogonalEdgeStyle;rounded=0;orthogonalLoop=1;jettySize=auto;html=1;entryX=0.01;entryY=0.57;entryDx=0;entryDy=0;entryPerimeter=0;curved=1;endArrow=none;endFill=0;shadow=0;sketch=1;curveFitting=1;jiggle=2;" parent="1" source="aT3DeLU2Pqq4UQU0p8eB-1" target="aT3DeLU2Pqq4UQU0p8eB-4" edge="1">
          <mxGeometry relative="1" as="geometry" />
        </mxCell>
        <mxCell id="aT3DeLU2Pqq4UQU0p8eB-8" value="" style="ellipse;whiteSpace=wrap;html=1;aspect=fixed;fillColor=#1ba1e2;fontColor=#ffffff;strokeColor=#006EAF;shadow=0;" parent="1" vertex="1">
          <mxGeometry x="170.5" y="330.5" width="39" height="39" as="geometry" />
        </mxCell>
        <mxCell id="aT3DeLU2Pqq4UQU0p8eB-9" value="" style="ellipse;whiteSpace=wrap;html=1;aspect=fixed;fillColor=#60a917;fontColor=#ffffff;strokeColor=#2D7600;shadow=0;" parent="1" vertex="1">
          <mxGeometry x="430.5" y="150.5" width="39" height="39" as="geometry" />
        </mxCell>
        <mxCell id="aT3DeLU2Pqq4UQU0p8eB-10" value="" style="ellipse;whiteSpace=wrap;html=1;aspect=fixed;fillColor=#60a917;fontColor=#ffffff;strokeColor=#2D7600;shadow=0;" parent="1" vertex="1">
          <mxGeometry x="430.5" y="330.5" width="39" height="39" as="geometry" />
        </mxCell>
        <mxCell id="aT3DeLU2Pqq4UQU0p8eB-11" value="" style="ellipse;whiteSpace=wrap;html=1;aspect=fixed;fillColor=#60a917;fontColor=#ffffff;strokeColor=#2D7600;shadow=0;" parent="1" vertex="1">
          <mxGeometry x="430.5" y="510.5" width="39" height="39" as="geometry" />
        </mxCell>
        <mxCell id="aT3DeLU2Pqq4UQU0p8eB-14" value="" style="ellipse;whiteSpace=wrap;html=1;aspect=fixed;fillColor=#1ba1e2;fontColor=#ffffff;strokeColor=#006EAF;shadow=0;" parent="1" vertex="1">
          <mxGeometry x="111.5" y="485" width="39" height="39" as="geometry" />
        </mxCell>
        <mxCell id="aT3DeLU2Pqq4UQU0p8eB-15" value="" style="ellipse;whiteSpace=wrap;html=1;aspect=fixed;fillColor=#60a917;fontColor=#ffffff;strokeColor=#2D7600;shadow=0;" parent="1" vertex="1">
          <mxGeometry x="111.5" y="543" width="39" height="39" as="geometry" />
        </mxCell>
        <mxCell id="aT3DeLU2Pqq4UQU0p8eB-16" value="Cluster Driver Process" style="text;html=1;strokeColor=none;fillColor=none;align=center;verticalAlign=middle;whiteSpace=wrap;rounded=0;shadow=0;sketch=1;curveFitting=1;jiggle=2;fontSize=15;" parent="1" vertex="1">
          <mxGeometry x="157" y="489.5" width="157" height="30" as="geometry" />
        </mxCell>
        <mxCell id="aT3DeLU2Pqq4UQU0p8eB-17" value="Cluster Worker Process" style="text;html=1;strokeColor=none;fillColor=none;align=center;verticalAlign=middle;whiteSpace=wrap;rounded=0;shadow=0;sketch=1;curveFitting=1;jiggle=2;fontSize=15;" parent="1" vertex="1">
          <mxGeometry x="157" y="547.5" width="161" height="30" as="geometry" />
        </mxCell>
      </root>
    </mxGraphModel>
  </diagram>
  <diagram id="RVXS3O1pLlI_MmRZddBC" name="spark_cluster_mode">
    <mxGraphModel dx="1306" dy="814" grid="0" gridSize="10" guides="1" tooltips="1" connect="1" arrows="1" fold="1" page="0" pageScale="1" pageWidth="1100" pageHeight="850" math="0" shadow="0">
      <root>
        <mxCell id="0" />
        <mxCell id="1" parent="0" />
        <mxCell id="spOvsRh_ShtZSL2DG-OT-1" value="&lt;font color=&quot;#000000&quot; style=&quot;font-size: 15px;&quot;&gt;Cluster Nodes&lt;br&gt;&lt;/font&gt;" style="fillColor=none;strokeColor=#5A6C86;dashed=1;verticalAlign=top;fontStyle=0;fontColor=#5A6C86;whiteSpace=wrap;html=1;shadow=0;sketch=1;curveFitting=1;jiggle=2;" parent="1" vertex="1">
          <mxGeometry x="72" y="57" width="470" height="571" as="geometry" />
        </mxCell>
        <mxCell id="spOvsRh_ShtZSL2DG-OT-5" value="" style="whiteSpace=wrap;html=1;aspect=fixed;sketch=1;curveFitting=1;jiggle=2;shadow=0;" parent="1" vertex="1">
          <mxGeometry x="140" y="300" width="100" height="100" as="geometry" />
        </mxCell>
        <mxCell id="spOvsRh_ShtZSL2DG-OT-6" value="" style="whiteSpace=wrap;html=1;aspect=fixed;sketch=1;curveFitting=1;jiggle=2;shadow=0;" parent="1" vertex="1">
          <mxGeometry x="400" y="120" width="124" height="124" as="geometry" />
        </mxCell>
        <mxCell id="spOvsRh_ShtZSL2DG-OT-7" value="" style="whiteSpace=wrap;html=1;aspect=fixed;sketch=1;curveFitting=1;jiggle=2;shadow=0;" parent="1" vertex="1">
          <mxGeometry x="400" y="300" width="123" height="123" as="geometry" />
        </mxCell>
        <mxCell id="spOvsRh_ShtZSL2DG-OT-8" value="" style="whiteSpace=wrap;html=1;aspect=fixed;sketch=1;curveFitting=1;jiggle=2;shadow=0;" parent="1" vertex="1">
          <mxGeometry x="400" y="480" width="127" height="127" as="geometry" />
        </mxCell>
        <mxCell id="spOvsRh_ShtZSL2DG-OT-9" style="edgeStyle=orthogonalEdgeStyle;rounded=0;orthogonalLoop=1;jettySize=auto;html=1;entryX=0;entryY=0.5;entryDx=0;entryDy=0;curved=1;endArrow=none;endFill=0;shadow=0;sketch=1;curveFitting=1;jiggle=2;" parent="1" target="spOvsRh_ShtZSL2DG-OT-8" edge="1">
          <mxGeometry relative="1" as="geometry">
            <mxPoint x="190" y="352" as="sourcePoint" />
            <mxPoint x="351.1100000000001" y="545.27" as="targetPoint" />
            <Array as="points">
              <mxPoint x="190" y="353" />
              <mxPoint x="304" y="353" />
              <mxPoint x="304" y="544" />
            </Array>
          </mxGeometry>
        </mxCell>
        <mxCell id="spOvsRh_ShtZSL2DG-OT-10" value="" style="ellipse;whiteSpace=wrap;html=1;aspect=fixed;fillColor=#1ba1e2;fontColor=#ffffff;strokeColor=#006EAF;shadow=0;" parent="1" vertex="1">
          <mxGeometry x="170.5" y="330.5" width="39" height="39" as="geometry" />
        </mxCell>
        <mxCell id="spOvsRh_ShtZSL2DG-OT-11" value="" style="ellipse;whiteSpace=wrap;html=1;aspect=fixed;fillColor=#60a917;fontColor=#ffffff;strokeColor=#2D7600;shadow=0;" parent="1" vertex="1">
          <mxGeometry x="414" y="150.5" width="39" height="39" as="geometry" />
        </mxCell>
        <mxCell id="spOvsRh_ShtZSL2DG-OT-12" value="" style="ellipse;whiteSpace=wrap;html=1;aspect=fixed;fillColor=#60a917;fontColor=#ffffff;strokeColor=#2D7600;shadow=0;" parent="1" vertex="1">
          <mxGeometry x="414" y="330.5" width="39" height="39" as="geometry" />
        </mxCell>
        <mxCell id="spOvsRh_ShtZSL2DG-OT-13" value="" style="ellipse;whiteSpace=wrap;html=1;aspect=fixed;fillColor=#60a917;fontColor=#ffffff;strokeColor=#2D7600;shadow=0;" parent="1" vertex="1">
          <mxGeometry x="414" y="514" width="39" height="39" as="geometry" />
        </mxCell>
        <mxCell id="spOvsRh_ShtZSL2DG-OT-18" value="" style="rounded=0;whiteSpace=wrap;html=1;rotation=-90;fillColor=#ffff88;strokeColor=#36393d;" parent="1" vertex="1">
          <mxGeometry x="462" y="158" width="34" height="24" as="geometry" />
        </mxCell>
        <mxCell id="spOvsRh_ShtZSL2DG-OT-19" value="" style="rounded=0;whiteSpace=wrap;html=1;rotation=-90;fillColor=#ffff88;strokeColor=#36393d;" parent="1" vertex="1">
          <mxGeometry x="462" y="342" width="34" height="24" as="geometry" />
        </mxCell>
        <mxCell id="spOvsRh_ShtZSL2DG-OT-20" value="" style="rounded=0;whiteSpace=wrap;html=1;rotation=-90;fillColor=#ffff88;strokeColor=#36393d;" parent="1" vertex="1">
          <mxGeometry x="462" y="524" width="34" height="24" as="geometry" />
        </mxCell>
        <mxCell id="spOvsRh_ShtZSL2DG-OT-4" style="edgeStyle=orthogonalEdgeStyle;rounded=0;orthogonalLoop=1;jettySize=auto;html=1;entryX=0;entryY=0.5;entryDx=0;entryDy=0;curved=1;endArrow=none;endFill=0;shadow=0;sketch=1;curveFitting=1;jiggle=2;" parent="1" source="spOvsRh_ShtZSL2DG-OT-10" target="spOvsRh_ShtZSL2DG-OT-7" edge="1">
          <mxGeometry relative="1" as="geometry" />
        </mxCell>
        <mxCell id="spOvsRh_ShtZSL2DG-OT-3" style="edgeStyle=orthogonalEdgeStyle;rounded=0;orthogonalLoop=1;jettySize=auto;html=1;entryX=0;entryY=0.5;entryDx=0;entryDy=0;curved=1;endArrow=none;endFill=0;shadow=0;sketch=1;curveFitting=1;jiggle=2;" parent="1" source="spOvsRh_ShtZSL2DG-OT-5" target="spOvsRh_ShtZSL2DG-OT-6" edge="1">
          <mxGeometry relative="1" as="geometry" />
        </mxCell>
        <mxCell id="spOvsRh_ShtZSL2DG-OT-21" value="" style="rounded=0;whiteSpace=wrap;html=1;rotation=-90;fillColor=#ffff88;strokeColor=#36393d;" parent="1" vertex="1">
          <mxGeometry x="491" y="523.5" width="34" height="24" as="geometry" />
        </mxCell>
        <mxCell id="PHvEmRTDcldAGAWYhqXR-1" value="Driver" style="text;html=1;strokeColor=none;fillColor=none;align=center;verticalAlign=middle;whiteSpace=wrap;rounded=0;" parent="1" vertex="1">
          <mxGeometry x="162" y="270" width="60" height="30" as="geometry" />
        </mxCell>
        <mxCell id="PHvEmRTDcldAGAWYhqXR-2" value="Executor" style="text;html=1;strokeColor=none;fillColor=none;align=center;verticalAlign=middle;whiteSpace=wrap;rounded=0;" parent="1" vertex="1">
          <mxGeometry x="438" y="82" width="60" height="30" as="geometry" />
        </mxCell>
        <mxCell id="PHvEmRTDcldAGAWYhqXR-3" value="Executor" style="text;html=1;strokeColor=none;fillColor=none;align=center;verticalAlign=middle;whiteSpace=wrap;rounded=0;" parent="1" vertex="1">
          <mxGeometry x="433.5" y="267" width="60" height="30" as="geometry" />
        </mxCell>
        <mxCell id="PHvEmRTDcldAGAWYhqXR-4" value="Executor" style="text;html=1;strokeColor=none;fillColor=none;align=center;verticalAlign=middle;whiteSpace=wrap;rounded=0;" parent="1" vertex="1">
          <mxGeometry x="433.5" y="450" width="60" height="30" as="geometry" />
        </mxCell>
      </root>
    </mxGraphModel>
  </diagram>
  <diagram id="RdmqIKIr82Ue5MBHYbTT" name="spark_client_mode">
    <mxGraphModel dx="1306" dy="774" grid="0" gridSize="10" guides="1" tooltips="1" connect="1" arrows="1" fold="1" page="0" pageScale="1" pageWidth="1100" pageHeight="850" math="0" shadow="0">
      <root>
        <mxCell id="0" />
        <mxCell id="1" parent="0" />
        <mxCell id="i1t7X5yFeS6E_BL1AWsw-18" value="" style="fillColor=none;strokeColor=#5A6C86;dashed=1;verticalAlign=top;fontStyle=0;fontColor=#5A6C86;whiteSpace=wrap;html=1;shadow=0;sketch=1;curveFitting=1;jiggle=2;" parent="1" vertex="1">
          <mxGeometry x="106.5" y="18" width="157" height="202" as="geometry" />
        </mxCell>
        <mxCell id="i1t7X5yFeS6E_BL1AWsw-19" value="" style="whiteSpace=wrap;html=1;aspect=fixed;sketch=1;curveFitting=1;jiggle=2;shadow=0;" parent="1" vertex="1">
          <mxGeometry x="129" y="45" width="126" height="126" as="geometry" />
        </mxCell>
        <mxCell id="i1t7X5yFeS6E_BL1AWsw-1" value="&lt;font color=&quot;#000000&quot; style=&quot;font-size: 15px;&quot;&gt;Cluster&lt;br&gt;Workers Nodes&lt;/font&gt;" style="fillColor=none;strokeColor=#5A6C86;dashed=1;verticalAlign=top;fontStyle=0;fontColor=#5A6C86;whiteSpace=wrap;html=1;shadow=0;sketch=1;curveFitting=1;jiggle=2;" parent="1" vertex="1">
          <mxGeometry x="376" y="57" width="166" height="571" as="geometry" />
        </mxCell>
        <mxCell id="i1t7X5yFeS6E_BL1AWsw-4" value="" style="whiteSpace=wrap;html=1;aspect=fixed;sketch=1;curveFitting=1;jiggle=2;shadow=0;" parent="1" vertex="1">
          <mxGeometry x="400" y="120" width="124" height="124" as="geometry" />
        </mxCell>
        <mxCell id="i1t7X5yFeS6E_BL1AWsw-5" value="" style="whiteSpace=wrap;html=1;aspect=fixed;sketch=1;curveFitting=1;jiggle=2;shadow=0;" parent="1" vertex="1">
          <mxGeometry x="400" y="300" width="123" height="123" as="geometry" />
        </mxCell>
        <mxCell id="i1t7X5yFeS6E_BL1AWsw-6" value="" style="whiteSpace=wrap;html=1;aspect=fixed;sketch=1;curveFitting=1;jiggle=2;shadow=0;" parent="1" vertex="1">
          <mxGeometry x="400" y="480" width="127" height="127" as="geometry" />
        </mxCell>
        <mxCell id="i1t7X5yFeS6E_BL1AWsw-9" value="" style="ellipse;whiteSpace=wrap;html=1;aspect=fixed;fillColor=#60a917;fontColor=#ffffff;strokeColor=#2D7600;shadow=0;" parent="1" vertex="1">
          <mxGeometry x="414" y="150.5" width="39" height="39" as="geometry" />
        </mxCell>
        <mxCell id="i1t7X5yFeS6E_BL1AWsw-10" value="" style="ellipse;whiteSpace=wrap;html=1;aspect=fixed;fillColor=#60a917;fontColor=#ffffff;strokeColor=#2D7600;shadow=0;" parent="1" vertex="1">
          <mxGeometry x="414" y="330.5" width="39" height="39" as="geometry" />
        </mxCell>
        <mxCell id="i1t7X5yFeS6E_BL1AWsw-11" value="" style="ellipse;whiteSpace=wrap;html=1;aspect=fixed;fillColor=#60a917;fontColor=#ffffff;strokeColor=#2D7600;shadow=0;" parent="1" vertex="1">
          <mxGeometry x="414" y="514" width="39" height="39" as="geometry" />
        </mxCell>
        <mxCell id="i1t7X5yFeS6E_BL1AWsw-12" value="" style="rounded=0;whiteSpace=wrap;html=1;rotation=-90;fillColor=#ffff88;strokeColor=#36393d;" parent="1" vertex="1">
          <mxGeometry x="462" y="158" width="34" height="24" as="geometry" />
        </mxCell>
        <mxCell id="i1t7X5yFeS6E_BL1AWsw-13" value="" style="rounded=0;whiteSpace=wrap;html=1;rotation=-90;fillColor=#ffff88;strokeColor=#36393d;" parent="1" vertex="1">
          <mxGeometry x="462" y="342" width="34" height="24" as="geometry" />
        </mxCell>
        <mxCell id="i1t7X5yFeS6E_BL1AWsw-14" value="" style="rounded=0;whiteSpace=wrap;html=1;rotation=-90;fillColor=#ffff88;strokeColor=#36393d;" parent="1" vertex="1">
          <mxGeometry x="462" y="524" width="34" height="24" as="geometry" />
        </mxCell>
        <mxCell id="i1t7X5yFeS6E_BL1AWsw-22" style="edgeStyle=orthogonalEdgeStyle;rounded=0;orthogonalLoop=1;jettySize=auto;html=1;curved=1;dashed=1;" parent="1" source="i1t7X5yFeS6E_BL1AWsw-17" target="i1t7X5yFeS6E_BL1AWsw-12" edge="1">
          <mxGeometry relative="1" as="geometry" />
        </mxCell>
        <mxCell id="i1t7X5yFeS6E_BL1AWsw-24" style="edgeStyle=orthogonalEdgeStyle;rounded=0;orthogonalLoop=1;jettySize=auto;html=1;exitX=0;exitY=0.5;exitDx=0;exitDy=0;curved=1;dashed=1;" parent="1" source="i1t7X5yFeS6E_BL1AWsw-17" target="i1t7X5yFeS6E_BL1AWsw-14" edge="1">
          <mxGeometry relative="1" as="geometry">
            <Array as="points">
              <mxPoint x="300" y="109" />
              <mxPoint x="300" y="451" />
              <mxPoint x="479" y="451" />
            </Array>
          </mxGeometry>
        </mxCell>
        <mxCell id="i1t7X5yFeS6E_BL1AWsw-25" style="edgeStyle=orthogonalEdgeStyle;rounded=0;orthogonalLoop=1;jettySize=auto;html=1;exitX=0.25;exitY=1;exitDx=0;exitDy=0;entryX=1;entryY=0.5;entryDx=0;entryDy=0;curved=1;dashed=1;" parent="1" source="i1t7X5yFeS6E_BL1AWsw-17" target="i1t7X5yFeS6E_BL1AWsw-13" edge="1">
          <mxGeometry relative="1" as="geometry">
            <Array as="points">
              <mxPoint x="314" y="101" />
              <mxPoint x="314" y="188" />
              <mxPoint x="479" y="188" />
            </Array>
          </mxGeometry>
        </mxCell>
        <mxCell id="i1t7X5yFeS6E_BL1AWsw-17" value="" style="rounded=0;whiteSpace=wrap;html=1;rotation=-90;fillColor=#ffff88;strokeColor=#36393d;" parent="1" vertex="1">
          <mxGeometry x="206" y="79.98" width="34" height="24" as="geometry" />
        </mxCell>
        <mxCell id="i1t7X5yFeS6E_BL1AWsw-21" value="" style="image;aspect=fixed;html=1;points=[];align=center;fontSize=12;image=img/lib/azure2/other/Azure_Cloud_Shell.svg;" parent="1" vertex="1">
          <mxGeometry x="152" y="77" width="50" height="34.71" as="geometry" />
        </mxCell>
        <mxCell id="LVfduvfRK8ViLAqxqGfT-1" value="" style="ellipse;whiteSpace=wrap;html=1;aspect=fixed;fillColor=#1ba1e2;fontColor=#ffffff;strokeColor=#006EAF;shadow=0;" parent="1" vertex="1">
          <mxGeometry x="187" y="114.48" width="39" height="39" as="geometry" />
        </mxCell>
      </root>
    </mxGraphModel>
  </diagram>
  <diagram id="Y0Uju8cO8i8fBcdrCheF" name="Page-5">
    <mxGraphModel dx="1306" dy="774" grid="0" gridSize="10" guides="1" tooltips="1" connect="1" arrows="1" fold="1" page="0" pageScale="1" pageWidth="1100" pageHeight="850" math="0" shadow="0">
      <root>
        <mxCell id="0" />
        <mxCell id="1" parent="0" />
      </root>
    </mxGraphModel>
  </diagram>
  <diagram id="989PQQ0WTvkhWqodarrD" name="Page-6">
    <mxGraphModel dx="1306" dy="774" grid="1" gridSize="10" guides="1" tooltips="1" connect="1" arrows="1" fold="1" page="1" pageScale="1" pageWidth="1100" pageHeight="850" math="0" shadow="0">
      <root>
        <mxCell id="0" />
        <mxCell id="1" parent="0" />
      </root>
    </mxGraphModel>
  </diagram>
  <diagram id="BZ_TNN_YljsB8n7Fl_K8" name="Spark components communicate">
    <mxGraphModel dx="1306" dy="774" grid="0" gridSize="10" guides="1" tooltips="1" connect="1" arrows="1" fold="1" page="0" pageScale="1" pageWidth="1100" pageHeight="850" math="0" shadow="0">
      <root>
        <mxCell id="0" />
        <mxCell id="1" parent="0" />
        <mxCell id="UXFeTX7U3rfKRGeQEjud-1" value="&lt;font color=&quot;#000000&quot; style=&quot;font-size: 15px;&quot;&gt;Cluster Nodes&lt;br&gt;&lt;/font&gt;" style="fillColor=none;strokeColor=#5A6C86;dashed=1;verticalAlign=top;fontStyle=0;fontColor=#5A6C86;whiteSpace=wrap;html=1;shadow=0;sketch=1;curveFitting=1;jiggle=2;" parent="1" vertex="1">
          <mxGeometry x="96" y="57" width="521" height="666" as="geometry" />
        </mxCell>
        <mxCell id="UXFeTX7U3rfKRGeQEjud-48" style="edgeStyle=orthogonalEdgeStyle;rounded=0;orthogonalLoop=1;jettySize=auto;html=1;exitX=0.5;exitY=1;exitDx=0;exitDy=0;entryX=0.5;entryY=0;entryDx=0;entryDy=0;strokeWidth=2;startArrow=classic;startFill=1;strokeColor=#336600;" parent="1" source="UXFeTX7U3rfKRGeQEjud-28" target="UXFeTX7U3rfKRGeQEjud-31" edge="1">
          <mxGeometry relative="1" as="geometry" />
        </mxCell>
        <mxCell id="UXFeTX7U3rfKRGeQEjud-49" style="edgeStyle=orthogonalEdgeStyle;rounded=0;orthogonalLoop=1;jettySize=auto;html=1;entryX=0.75;entryY=0;entryDx=0;entryDy=0;startArrow=classic;startFill=1;strokeWidth=2;strokeColor=#336600;" parent="1" source="UXFeTX7U3rfKRGeQEjud-28" target="UXFeTX7U3rfKRGeQEjud-22" edge="1">
          <mxGeometry relative="1" as="geometry" />
        </mxCell>
        <mxCell id="UXFeTX7U3rfKRGeQEjud-28" value="" style="rounded=1;whiteSpace=wrap;html=1;" parent="1" vertex="1">
          <mxGeometry x="370.5" y="105" width="181" height="190" as="geometry" />
        </mxCell>
        <mxCell id="UXFeTX7U3rfKRGeQEjud-21" value="" style="whiteSpace=wrap;html=1;aspect=fixed;shadow=0;" parent="1" vertex="1">
          <mxGeometry x="115" y="276" width="153" height="153" as="geometry" />
        </mxCell>
        <mxCell id="UXFeTX7U3rfKRGeQEjud-2" value="" style="whiteSpace=wrap;html=1;aspect=fixed;shadow=0;fillColor=#d5e8d4;strokeColor=#82b366;" parent="1" vertex="1">
          <mxGeometry x="130" y="300" width="119" height="119" as="geometry" />
        </mxCell>
        <mxCell id="UXFeTX7U3rfKRGeQEjud-3" value="" style="whiteSpace=wrap;html=1;aspect=fixed;shadow=0;fillColor=#b1ddf0;strokeColor=#10739e;" parent="1" vertex="1">
          <mxGeometry x="396" y="138" width="124" height="124" as="geometry" />
        </mxCell>
        <mxCell id="UXFeTX7U3rfKRGeQEjud-8" value="" style="ellipse;whiteSpace=wrap;html=1;aspect=fixed;fillColor=#fa6800;strokeColor=#C73500;shadow=0;fontColor=#000000;" parent="1" vertex="1">
          <mxGeometry x="413" y="158" width="39" height="39" as="geometry" />
        </mxCell>
        <mxCell id="UXFeTX7U3rfKRGeQEjud-17" value="Driver" style="text;html=1;strokeColor=none;fillColor=none;align=center;verticalAlign=middle;whiteSpace=wrap;rounded=0;" parent="1" vertex="1">
          <mxGeometry x="124" y="297" width="60" height="30" as="geometry" />
        </mxCell>
        <mxCell id="UXFeTX7U3rfKRGeQEjud-18" value="Executor" style="text;html=1;strokeColor=none;fillColor=none;align=center;verticalAlign=middle;whiteSpace=wrap;rounded=0;" parent="1" vertex="1">
          <mxGeometry x="431" y="260" width="60" height="30" as="geometry" />
        </mxCell>
        <mxCell id="UXFeTX7U3rfKRGeQEjud-22" value="Spark Application" style="text;html=1;strokeColor=none;fillColor=none;align=center;verticalAlign=middle;whiteSpace=wrap;rounded=0;" parent="1" vertex="1">
          <mxGeometry x="115" y="274" width="100" height="30" as="geometry" />
        </mxCell>
        <mxCell id="UXFeTX7U3rfKRGeQEjud-23" value="" style="whiteSpace=wrap;html=1;aspect=fixed;shadow=0;fillColor=#dae8fc;strokeColor=#6c8ebf;" parent="1" vertex="1">
          <mxGeometry x="143" y="321" width="88" height="88" as="geometry" />
        </mxCell>
        <mxCell id="UXFeTX7U3rfKRGeQEjud-24" value="Spark Session" style="text;html=1;strokeColor=none;fillColor=none;align=center;verticalAlign=middle;whiteSpace=wrap;rounded=0;" parent="1" vertex="1">
          <mxGeometry x="146.5" y="324" width="81" height="30" as="geometry" />
        </mxCell>
        <mxCell id="UXFeTX7U3rfKRGeQEjud-25" value="" style="ellipse;whiteSpace=wrap;html=1;aspect=fixed;fillColor=#fa6800;strokeColor=#C73500;shadow=0;fontColor=#000000;" parent="1" vertex="1">
          <mxGeometry x="466" y="158" width="39" height="39" as="geometry" />
        </mxCell>
        <mxCell id="UXFeTX7U3rfKRGeQEjud-26" value="T" style="ellipse;whiteSpace=wrap;html=1;aspect=fixed;fillColor=#fa6800;strokeColor=#C73500;shadow=0;fontColor=#000000;fontSize=16;fontStyle=0" parent="1" vertex="1">
          <mxGeometry x="413" y="204" width="39" height="39" as="geometry" />
        </mxCell>
        <mxCell id="UXFeTX7U3rfKRGeQEjud-27" value="" style="ellipse;whiteSpace=wrap;html=1;aspect=fixed;fillColor=#fa6800;strokeColor=#C73500;shadow=0;fontColor=#000000;" parent="1" vertex="1">
          <mxGeometry x="466" y="204" width="39" height="39" as="geometry" />
        </mxCell>
        <mxCell id="UXFeTX7U3rfKRGeQEjud-30" value="Cluster Node" style="text;html=1;strokeColor=none;fillColor=none;align=center;verticalAlign=middle;whiteSpace=wrap;rounded=0;" parent="1" vertex="1">
          <mxGeometry x="559" y="185" width="60" height="30" as="geometry" />
        </mxCell>
        <mxCell id="UXFeTX7U3rfKRGeQEjud-50" style="edgeStyle=orthogonalEdgeStyle;rounded=0;orthogonalLoop=1;jettySize=auto;html=1;exitX=0;exitY=0.5;exitDx=0;exitDy=0;entryX=0.5;entryY=1;entryDx=0;entryDy=0;startArrow=classic;startFill=1;strokeWidth=2;strokeColor=#336600;" parent="1" source="UXFeTX7U3rfKRGeQEjud-31" target="UXFeTX7U3rfKRGeQEjud-21" edge="1">
          <mxGeometry relative="1" as="geometry" />
        </mxCell>
        <mxCell id="UXFeTX7U3rfKRGeQEjud-31" value="" style="rounded=1;whiteSpace=wrap;html=1;" parent="1" vertex="1">
          <mxGeometry x="369.5" y="335" width="184.5" height="364" as="geometry" />
        </mxCell>
        <mxCell id="UXFeTX7U3rfKRGeQEjud-32" value="" style="whiteSpace=wrap;html=1;aspect=fixed;shadow=0;fillColor=#b1ddf0;strokeColor=#10739e;" parent="1" vertex="1">
          <mxGeometry x="395" y="368" width="124" height="124" as="geometry" />
        </mxCell>
        <mxCell id="UXFeTX7U3rfKRGeQEjud-33" value="T" style="ellipse;whiteSpace=wrap;html=1;aspect=fixed;fillColor=#fa6800;strokeColor=#C73500;shadow=0;fontColor=#000000;fontSize=16;fontStyle=0" parent="1" vertex="1">
          <mxGeometry x="412" y="388" width="39" height="39" as="geometry" />
        </mxCell>
        <mxCell id="UXFeTX7U3rfKRGeQEjud-34" value="Executor" style="text;html=1;strokeColor=none;fillColor=none;align=center;verticalAlign=middle;whiteSpace=wrap;rounded=0;" parent="1" vertex="1">
          <mxGeometry x="430" y="490" width="60" height="30" as="geometry" />
        </mxCell>
        <mxCell id="UXFeTX7U3rfKRGeQEjud-35" value="" style="ellipse;whiteSpace=wrap;html=1;aspect=fixed;fillColor=#fa6800;strokeColor=#C73500;shadow=0;fontColor=#000000;" parent="1" vertex="1">
          <mxGeometry x="465" y="388" width="39" height="39" as="geometry" />
        </mxCell>
        <mxCell id="UXFeTX7U3rfKRGeQEjud-36" value="" style="ellipse;whiteSpace=wrap;html=1;aspect=fixed;fillColor=#fa6800;strokeColor=#C73500;shadow=0;fontColor=#000000;" parent="1" vertex="1">
          <mxGeometry x="412" y="434" width="39" height="39" as="geometry" />
        </mxCell>
        <mxCell id="UXFeTX7U3rfKRGeQEjud-37" value="" style="ellipse;whiteSpace=wrap;html=1;aspect=fixed;fillColor=#fa6800;strokeColor=#C73500;shadow=0;fontColor=#000000;" parent="1" vertex="1">
          <mxGeometry x="465" y="434" width="39" height="39" as="geometry" />
        </mxCell>
        <mxCell id="UXFeTX7U3rfKRGeQEjud-38" value="Cluster Node" style="text;html=1;strokeColor=none;fillColor=none;align=center;verticalAlign=middle;whiteSpace=wrap;rounded=0;" parent="1" vertex="1">
          <mxGeometry x="563" y="500" width="60" height="30" as="geometry" />
        </mxCell>
        <mxCell id="UXFeTX7U3rfKRGeQEjud-39" value="" style="whiteSpace=wrap;html=1;aspect=fixed;shadow=0;fillColor=#b1ddf0;strokeColor=#10739e;" parent="1" vertex="1">
          <mxGeometry x="395" y="530" width="124" height="124" as="geometry" />
        </mxCell>
        <mxCell id="UXFeTX7U3rfKRGeQEjud-40" value="T" style="ellipse;whiteSpace=wrap;html=1;aspect=fixed;fillColor=#fa6800;strokeColor=#C73500;shadow=0;fontColor=#000000;fontSize=16;fontStyle=0" parent="1" vertex="1">
          <mxGeometry x="412" y="550" width="39" height="39" as="geometry" />
        </mxCell>
        <mxCell id="UXFeTX7U3rfKRGeQEjud-41" value="Executor" style="text;html=1;strokeColor=none;fillColor=none;align=center;verticalAlign=middle;whiteSpace=wrap;rounded=0;" parent="1" vertex="1">
          <mxGeometry x="430" y="652" width="60" height="30" as="geometry" />
        </mxCell>
        <mxCell id="UXFeTX7U3rfKRGeQEjud-42" value="" style="ellipse;whiteSpace=wrap;html=1;aspect=fixed;fillColor=#fa6800;strokeColor=#C73500;shadow=0;fontColor=#000000;" parent="1" vertex="1">
          <mxGeometry x="465" y="550" width="39" height="39" as="geometry" />
        </mxCell>
        <mxCell id="UXFeTX7U3rfKRGeQEjud-43" value="" style="ellipse;whiteSpace=wrap;html=1;aspect=fixed;fillColor=#fa6800;strokeColor=#C73500;shadow=0;fontColor=#000000;" parent="1" vertex="1">
          <mxGeometry x="412" y="596" width="39" height="39" as="geometry" />
        </mxCell>
        <mxCell id="UXFeTX7U3rfKRGeQEjud-44" value="" style="ellipse;whiteSpace=wrap;html=1;aspect=fixed;fillColor=#fa6800;strokeColor=#C73500;shadow=0;fontColor=#000000;" parent="1" vertex="1">
          <mxGeometry x="465" y="596" width="39" height="39" as="geometry" />
        </mxCell>
        <mxCell id="UXFeTX7U3rfKRGeQEjud-46" value="T" style="ellipse;whiteSpace=wrap;html=1;aspect=fixed;fillColor=#fa6800;strokeColor=#C73500;shadow=0;fontColor=#000000;fontSize=16;fontStyle=0" parent="1" vertex="1">
          <mxGeometry x="159" y="618" width="39" height="39" as="geometry" />
        </mxCell>
        <mxCell id="UXFeTX7U3rfKRGeQEjud-47" value="Task Per Core" style="text;html=1;strokeColor=none;fillColor=none;align=center;verticalAlign=middle;whiteSpace=wrap;rounded=0;" parent="1" vertex="1">
          <mxGeometry x="205" y="622.5" width="82" height="30" as="geometry" />
        </mxCell>
      </root>
    </mxGraphModel>
  </diagram>
  <diagram id="C_IayHemHWI-Aj4TgZJL" name="spark_job">
    <mxGraphModel dx="1706" dy="1174" grid="0" gridSize="10" guides="1" tooltips="1" connect="1" arrows="1" fold="1" page="0" pageScale="1" pageWidth="1100" pageHeight="850" math="0" shadow="0">
      <root>
        <mxCell id="0" />
        <mxCell id="1" parent="0" />
        <mxCell id="VCYKAX62lZ69btMDctYb-10" style="edgeStyle=orthogonalEdgeStyle;rounded=0;orthogonalLoop=1;jettySize=auto;html=1;entryX=0;entryY=0.5;entryDx=0;entryDy=0;" parent="1" source="VCYKAX62lZ69btMDctYb-5" target="VCYKAX62lZ69btMDctYb-7" edge="1">
          <mxGeometry relative="1" as="geometry" />
        </mxCell>
        <mxCell id="VCYKAX62lZ69btMDctYb-11" style="edgeStyle=orthogonalEdgeStyle;rounded=0;orthogonalLoop=1;jettySize=auto;html=1;entryX=0;entryY=0.5;entryDx=0;entryDy=0;" parent="1" source="VCYKAX62lZ69btMDctYb-5" target="VCYKAX62lZ69btMDctYb-8" edge="1">
          <mxGeometry relative="1" as="geometry" />
        </mxCell>
        <mxCell id="VCYKAX62lZ69btMDctYb-12" style="edgeStyle=orthogonalEdgeStyle;rounded=0;orthogonalLoop=1;jettySize=auto;html=1;entryX=0;entryY=0.5;entryDx=0;entryDy=0;" parent="1" source="VCYKAX62lZ69btMDctYb-5" target="VCYKAX62lZ69btMDctYb-9" edge="1">
          <mxGeometry relative="1" as="geometry" />
        </mxCell>
        <mxCell id="VCYKAX62lZ69btMDctYb-5" value="Driver" style="rounded=1;whiteSpace=wrap;html=1;fillColor=#dae8fc;strokeColor=#6c8ebf;" parent="1" vertex="1">
          <mxGeometry x="-115.5" y="10" width="91" height="32" as="geometry" />
        </mxCell>
        <mxCell id="VCYKAX62lZ69btMDctYb-7" value="Job" style="rounded=1;whiteSpace=wrap;html=1;fillColor=#ffe6cc;strokeColor=#d79b00;" parent="1" vertex="1">
          <mxGeometry x="32" y="-59" width="91" height="32" as="geometry" />
        </mxCell>
        <mxCell id="VCYKAX62lZ69btMDctYb-8" value="Job" style="rounded=1;whiteSpace=wrap;html=1;fillColor=#ffe6cc;strokeColor=#d79b00;" parent="1" vertex="1">
          <mxGeometry x="32" y="10" width="91" height="32" as="geometry" />
        </mxCell>
        <mxCell id="VCYKAX62lZ69btMDctYb-9" value="Job" style="rounded=1;whiteSpace=wrap;html=1;fillColor=#ffe6cc;strokeColor=#d79b00;" parent="1" vertex="1">
          <mxGeometry x="32" y="79" width="91" height="32" as="geometry" />
        </mxCell>
      </root>
    </mxGraphModel>
  </diagram>
  <diagram id="ZyWXXyJT6FUXcWvlCf5n" name="Spark_Tasks">
    <mxGraphModel dx="1706" dy="1174" grid="0" gridSize="10" guides="1" tooltips="1" connect="1" arrows="1" fold="1" page="0" pageScale="1" pageWidth="1100" pageHeight="850" math="0" shadow="0">
      <root>
        <mxCell id="0" />
        <mxCell id="1" parent="0" />
        <mxCell id="o7XvDmGcdy_fA0c7NEp0-2" style="edgeStyle=orthogonalEdgeStyle;rounded=0;orthogonalLoop=1;jettySize=auto;html=1;entryX=0;entryY=0.5;entryDx=0;entryDy=0;" parent="1" source="o7XvDmGcdy_fA0c7NEp0-5" target="o7XvDmGcdy_fA0c7NEp0-6" edge="1">
          <mxGeometry relative="1" as="geometry" />
        </mxCell>
        <mxCell id="o7XvDmGcdy_fA0c7NEp0-3" style="edgeStyle=orthogonalEdgeStyle;rounded=0;orthogonalLoop=1;jettySize=auto;html=1;entryX=0;entryY=0.5;entryDx=0;entryDy=0;" parent="1" source="o7XvDmGcdy_fA0c7NEp0-5" target="o7XvDmGcdy_fA0c7NEp0-7" edge="1">
          <mxGeometry relative="1" as="geometry" />
        </mxCell>
        <mxCell id="o7XvDmGcdy_fA0c7NEp0-4" style="edgeStyle=orthogonalEdgeStyle;rounded=0;orthogonalLoop=1;jettySize=auto;html=1;entryX=0;entryY=0.5;entryDx=0;entryDy=0;" parent="1" source="o7XvDmGcdy_fA0c7NEp0-5" target="o7XvDmGcdy_fA0c7NEp0-8" edge="1">
          <mxGeometry relative="1" as="geometry" />
        </mxCell>
        <mxCell id="o7XvDmGcdy_fA0c7NEp0-5" value="Driver" style="rounded=1;whiteSpace=wrap;html=1;fillColor=#dae8fc;strokeColor=#6c8ebf;" parent="1" vertex="1">
          <mxGeometry x="-115.5" y="10" width="91" height="32" as="geometry" />
        </mxCell>
        <mxCell id="o7XvDmGcdy_fA0c7NEp0-6" value="Job" style="rounded=1;whiteSpace=wrap;html=1;fillColor=#ffe6cc;strokeColor=#d79b00;" parent="1" vertex="1">
          <mxGeometry x="32" y="-59" width="91" height="32" as="geometry" />
        </mxCell>
        <mxCell id="I3jBzIyNEXpWxF0Cw8JD-1" style="edgeStyle=orthogonalEdgeStyle;rounded=0;orthogonalLoop=1;jettySize=auto;html=1;entryX=0;entryY=0.5;entryDx=0;entryDy=0;" parent="1" source="o7XvDmGcdy_fA0c7NEp0-7" target="o7XvDmGcdy_fA0c7NEp0-9" edge="1">
          <mxGeometry relative="1" as="geometry" />
        </mxCell>
        <mxCell id="o7XvDmGcdy_fA0c7NEp0-7" value="Job" style="rounded=1;whiteSpace=wrap;html=1;fillColor=#ffe6cc;strokeColor=#d79b00;" parent="1" vertex="1">
          <mxGeometry x="32" y="10" width="91" height="32" as="geometry" />
        </mxCell>
        <mxCell id="o7XvDmGcdy_fA0c7NEp0-8" value="Job" style="rounded=1;whiteSpace=wrap;html=1;fillColor=#ffe6cc;strokeColor=#d79b00;" parent="1" vertex="1">
          <mxGeometry x="32" y="79" width="91" height="32" as="geometry" />
        </mxCell>
        <mxCell id="o7XvDmGcdy_fA0c7NEp0-9" value="Stage" style="rounded=1;whiteSpace=wrap;html=1;fillColor=#d5e8d4;strokeColor=#82b366;" parent="1" vertex="1">
          <mxGeometry x="152" y="10" width="91" height="32" as="geometry" />
        </mxCell>
        <mxCell id="o7XvDmGcdy_fA0c7NEp0-15" style="edgeStyle=orthogonalEdgeStyle;rounded=0;orthogonalLoop=1;jettySize=auto;html=1;entryX=0;entryY=0.5;entryDx=0;entryDy=0;" parent="1" source="o7XvDmGcdy_fA0c7NEp0-10" target="o7XvDmGcdy_fA0c7NEp0-11" edge="1">
          <mxGeometry relative="1" as="geometry" />
        </mxCell>
        <mxCell id="o7XvDmGcdy_fA0c7NEp0-16" style="edgeStyle=orthogonalEdgeStyle;rounded=0;orthogonalLoop=1;jettySize=auto;html=1;" parent="1" source="o7XvDmGcdy_fA0c7NEp0-10" target="o7XvDmGcdy_fA0c7NEp0-12" edge="1">
          <mxGeometry relative="1" as="geometry" />
        </mxCell>
        <mxCell id="o7XvDmGcdy_fA0c7NEp0-17" style="edgeStyle=orthogonalEdgeStyle;rounded=0;orthogonalLoop=1;jettySize=auto;html=1;entryX=0;entryY=0.5;entryDx=0;entryDy=0;" parent="1" source="o7XvDmGcdy_fA0c7NEp0-10" target="o7XvDmGcdy_fA0c7NEp0-13" edge="1">
          <mxGeometry relative="1" as="geometry" />
        </mxCell>
        <mxCell id="o7XvDmGcdy_fA0c7NEp0-10" value="Stage" style="rounded=1;whiteSpace=wrap;html=1;fillColor=#d5e8d4;strokeColor=#82b366;" parent="1" vertex="1">
          <mxGeometry x="303" y="10" width="91" height="32" as="geometry" />
        </mxCell>
        <mxCell id="o7XvDmGcdy_fA0c7NEp0-11" value="Task" style="rounded=1;whiteSpace=wrap;html=1;fillColor=#e1d5e7;strokeColor=#9673a6;" parent="1" vertex="1">
          <mxGeometry x="434" y="-59" width="91" height="32" as="geometry" />
        </mxCell>
        <mxCell id="o7XvDmGcdy_fA0c7NEp0-12" value="Task" style="rounded=1;whiteSpace=wrap;html=1;fillColor=#e1d5e7;strokeColor=#9673a6;" parent="1" vertex="1">
          <mxGeometry x="434" y="10" width="91" height="32" as="geometry" />
        </mxCell>
        <mxCell id="o7XvDmGcdy_fA0c7NEp0-13" value="Task" style="rounded=1;whiteSpace=wrap;html=1;fillColor=#e1d5e7;strokeColor=#9673a6;" parent="1" vertex="1">
          <mxGeometry x="434" y="79" width="91" height="32" as="geometry" />
        </mxCell>
        <mxCell id="o7XvDmGcdy_fA0c7NEp0-14" value="" style="endArrow=none;dashed=1;html=1;dashPattern=1 3;strokeWidth=2;rounded=0;" parent="1" edge="1">
          <mxGeometry width="50" height="50" relative="1" as="geometry">
            <mxPoint x="260" y="29" as="sourcePoint" />
            <mxPoint x="293" y="29" as="targetPoint" />
          </mxGeometry>
        </mxCell>
      </root>
    </mxGraphModel>
  </diagram>
  <diagram id="E0BvCWXdw-lg8AVs_XC9" name="Spark_Stages">
    <mxGraphModel dx="1706" dy="1174" grid="0" gridSize="10" guides="1" tooltips="1" connect="1" arrows="1" fold="1" page="0" pageScale="1" pageWidth="1100" pageHeight="850" math="0" shadow="0">
      <root>
        <mxCell id="0" />
        <mxCell id="1" parent="0" />
        <mxCell id="kyEZNJF8uD40T-D42HVq-2" style="edgeStyle=orthogonalEdgeStyle;rounded=0;orthogonalLoop=1;jettySize=auto;html=1;entryX=0;entryY=0.5;entryDx=0;entryDy=0;" parent="1" source="kyEZNJF8uD40T-D42HVq-5" target="kyEZNJF8uD40T-D42HVq-6" edge="1">
          <mxGeometry relative="1" as="geometry" />
        </mxCell>
        <mxCell id="kyEZNJF8uD40T-D42HVq-3" style="edgeStyle=orthogonalEdgeStyle;rounded=0;orthogonalLoop=1;jettySize=auto;html=1;entryX=0;entryY=0.5;entryDx=0;entryDy=0;" parent="1" source="kyEZNJF8uD40T-D42HVq-5" target="kyEZNJF8uD40T-D42HVq-7" edge="1">
          <mxGeometry relative="1" as="geometry" />
        </mxCell>
        <mxCell id="kyEZNJF8uD40T-D42HVq-4" style="edgeStyle=orthogonalEdgeStyle;rounded=0;orthogonalLoop=1;jettySize=auto;html=1;entryX=0;entryY=0.5;entryDx=0;entryDy=0;" parent="1" source="kyEZNJF8uD40T-D42HVq-5" target="kyEZNJF8uD40T-D42HVq-8" edge="1">
          <mxGeometry relative="1" as="geometry" />
        </mxCell>
        <mxCell id="kyEZNJF8uD40T-D42HVq-5" value="Driver" style="rounded=1;whiteSpace=wrap;html=1;fillColor=#dae8fc;strokeColor=#6c8ebf;" parent="1" vertex="1">
          <mxGeometry x="-115.5" y="10" width="91" height="32" as="geometry" />
        </mxCell>
        <mxCell id="kyEZNJF8uD40T-D42HVq-6" value="Job" style="rounded=1;whiteSpace=wrap;html=1;fillColor=#ffe6cc;strokeColor=#d79b00;" parent="1" vertex="1">
          <mxGeometry x="32" y="-59" width="91" height="32" as="geometry" />
        </mxCell>
        <mxCell id="3kMTrrf32CEVfvQhcPHO-1" style="edgeStyle=orthogonalEdgeStyle;rounded=0;orthogonalLoop=1;jettySize=auto;html=1;entryX=0;entryY=0.5;entryDx=0;entryDy=0;" parent="1" source="kyEZNJF8uD40T-D42HVq-7" target="kyEZNJF8uD40T-D42HVq-9" edge="1">
          <mxGeometry relative="1" as="geometry" />
        </mxCell>
        <mxCell id="kyEZNJF8uD40T-D42HVq-7" value="Job" style="rounded=1;whiteSpace=wrap;html=1;fillColor=#ffe6cc;strokeColor=#d79b00;" parent="1" vertex="1">
          <mxGeometry x="32" y="10" width="91" height="32" as="geometry" />
        </mxCell>
        <mxCell id="kyEZNJF8uD40T-D42HVq-8" value="Job" style="rounded=1;whiteSpace=wrap;html=1;fillColor=#ffe6cc;strokeColor=#d79b00;" parent="1" vertex="1">
          <mxGeometry x="32" y="79" width="91" height="32" as="geometry" />
        </mxCell>
        <mxCell id="kyEZNJF8uD40T-D42HVq-9" value="Stage" style="rounded=1;whiteSpace=wrap;html=1;fillColor=#d5e8d4;strokeColor=#82b366;" parent="1" vertex="1">
          <mxGeometry x="152" y="10" width="91" height="32" as="geometry" />
        </mxCell>
        <mxCell id="kyEZNJF8uD40T-D42HVq-13" value="Stage" style="rounded=1;whiteSpace=wrap;html=1;fillColor=#d5e8d4;strokeColor=#82b366;" parent="1" vertex="1">
          <mxGeometry x="303" y="10" width="91" height="32" as="geometry" />
        </mxCell>
        <mxCell id="kyEZNJF8uD40T-D42HVq-17" value="" style="endArrow=none;dashed=1;html=1;dashPattern=1 3;strokeWidth=2;rounded=0;" parent="1" edge="1">
          <mxGeometry width="50" height="50" relative="1" as="geometry">
            <mxPoint x="260" y="29" as="sourcePoint" />
            <mxPoint x="293" y="29" as="targetPoint" />
          </mxGeometry>
        </mxCell>
      </root>
    </mxGraphModel>
  </diagram>
  <diagram id="6-KLReBriXWK8am6x1_n" name="Spark_Stage">
    <mxGraphModel dx="1306" dy="1174" grid="0" gridSize="10" guides="1" tooltips="1" connect="1" arrows="1" fold="1" page="0" pageScale="1" pageWidth="1100" pageHeight="850" math="0" shadow="0">
      <root>
        <mxCell id="0" />
        <mxCell id="1" parent="0" />
        <mxCell id="bg-iMfZ9aUCLROwxwtD0-11" value="" style="rounded=1;whiteSpace=wrap;html=1;fillColor=#d5e8d4;strokeColor=#82b366;" parent="1" vertex="1">
          <mxGeometry x="88" y="-71" width="196" height="225" as="geometry" />
        </mxCell>
        <mxCell id="bg-iMfZ9aUCLROwxwtD0-13" value="Stage" style="text;html=1;strokeColor=none;fillColor=none;align=center;verticalAlign=middle;whiteSpace=wrap;rounded=0;" parent="1" vertex="1">
          <mxGeometry x="152" y="-68" width="60" height="30" as="geometry" />
        </mxCell>
        <mxCell id="n1fPTBD5N0hGveVKwf26-1" value="Task" style="rounded=1;whiteSpace=wrap;html=1;fillColor=#e1d5e7;strokeColor=#9673a6;" parent="1" vertex="1">
          <mxGeometry x="140.5" y="-27" width="91" height="32" as="geometry" />
        </mxCell>
        <mxCell id="n1fPTBD5N0hGveVKwf26-2" value="Task" style="rounded=1;whiteSpace=wrap;html=1;fillColor=#e1d5e7;strokeColor=#9673a6;" parent="1" vertex="1">
          <mxGeometry x="140.5" y="41" width="91" height="32" as="geometry" />
        </mxCell>
        <mxCell id="n1fPTBD5N0hGveVKwf26-3" value="Task" style="rounded=1;whiteSpace=wrap;html=1;fillColor=#e1d5e7;strokeColor=#9673a6;" parent="1" vertex="1">
          <mxGeometry x="143" y="109" width="91" height="32" as="geometry" />
        </mxCell>
      </root>
    </mxGraphModel>
  </diagram>
  <diagram id="63ZTdDKCrXIcjVdJo9Q2" name="Page-12">
    <mxGraphModel dx="1706" dy="1174" grid="0" gridSize="10" guides="1" tooltips="1" connect="1" arrows="1" fold="1" page="0" pageScale="1" pageWidth="1100" pageHeight="850" math="0" shadow="0">
      <root>
        <mxCell id="0" />
        <mxCell id="1" parent="0" />
        <mxCell id="BG2wfVKWj8V5GDxB8UTh-1" value="" style="shape=table;startSize=0;container=1;collapsible=0;childLayout=tableLayout;fontSize=16;" parent="1" vertex="1">
          <mxGeometry x="-344" y="-14" width="108" height="61" as="geometry" />
        </mxCell>
        <mxCell id="BG2wfVKWj8V5GDxB8UTh-2" value="" style="shape=tableRow;horizontal=0;startSize=0;swimlaneHead=0;swimlaneBody=0;strokeColor=inherit;top=0;left=0;bottom=0;right=0;collapsible=0;dropTarget=0;fillColor=none;points=[[0,0.5],[1,0.5]];portConstraint=eastwest;fontSize=16;" parent="BG2wfVKWj8V5GDxB8UTh-1" vertex="1">
          <mxGeometry width="108" height="20" as="geometry" />
        </mxCell>
        <mxCell id="BG2wfVKWj8V5GDxB8UTh-3" value="A" style="shape=partialRectangle;html=1;whiteSpace=wrap;connectable=0;strokeColor=inherit;overflow=hidden;fillColor=none;top=0;left=0;bottom=0;right=0;pointerEvents=1;fontSize=16;" parent="BG2wfVKWj8V5GDxB8UTh-2" vertex="1">
          <mxGeometry width="36" height="20" as="geometry">
            <mxRectangle width="36" height="20" as="alternateBounds" />
          </mxGeometry>
        </mxCell>
        <mxCell id="BG2wfVKWj8V5GDxB8UTh-4" value="B" style="shape=partialRectangle;html=1;whiteSpace=wrap;connectable=0;strokeColor=inherit;overflow=hidden;fillColor=none;top=0;left=0;bottom=0;right=0;pointerEvents=1;fontSize=16;" parent="BG2wfVKWj8V5GDxB8UTh-2" vertex="1">
          <mxGeometry x="36" width="36" height="20" as="geometry">
            <mxRectangle width="36" height="20" as="alternateBounds" />
          </mxGeometry>
        </mxCell>
        <mxCell id="BG2wfVKWj8V5GDxB8UTh-5" value="C" style="shape=partialRectangle;html=1;whiteSpace=wrap;connectable=0;strokeColor=inherit;overflow=hidden;fillColor=none;top=0;left=0;bottom=0;right=0;pointerEvents=1;fontSize=16;" parent="BG2wfVKWj8V5GDxB8UTh-2" vertex="1">
          <mxGeometry x="72" width="36" height="20" as="geometry">
            <mxRectangle width="36" height="20" as="alternateBounds" />
          </mxGeometry>
        </mxCell>
        <mxCell id="BG2wfVKWj8V5GDxB8UTh-6" value="" style="shape=tableRow;horizontal=0;startSize=0;swimlaneHead=0;swimlaneBody=0;strokeColor=inherit;top=0;left=0;bottom=0;right=0;collapsible=0;dropTarget=0;fillColor=none;points=[[0,0.5],[1,0.5]];portConstraint=eastwest;fontSize=16;" parent="BG2wfVKWj8V5GDxB8UTh-1" vertex="1">
          <mxGeometry y="20" width="108" height="21" as="geometry" />
        </mxCell>
        <mxCell id="BG2wfVKWj8V5GDxB8UTh-7" value="aa" style="shape=partialRectangle;html=1;whiteSpace=wrap;connectable=0;strokeColor=inherit;overflow=hidden;fillColor=none;top=0;left=0;bottom=0;right=0;pointerEvents=1;fontSize=16;" parent="BG2wfVKWj8V5GDxB8UTh-6" vertex="1">
          <mxGeometry width="36" height="21" as="geometry">
            <mxRectangle width="36" height="21" as="alternateBounds" />
          </mxGeometry>
        </mxCell>
        <mxCell id="BG2wfVKWj8V5GDxB8UTh-8" value="1" style="shape=partialRectangle;html=1;whiteSpace=wrap;connectable=0;strokeColor=inherit;overflow=hidden;fillColor=none;top=0;left=0;bottom=0;right=0;pointerEvents=1;fontSize=16;" parent="BG2wfVKWj8V5GDxB8UTh-6" vertex="1">
          <mxGeometry x="36" width="36" height="21" as="geometry">
            <mxRectangle width="36" height="21" as="alternateBounds" />
          </mxGeometry>
        </mxCell>
        <mxCell id="BG2wfVKWj8V5GDxB8UTh-9" value="a1" style="shape=partialRectangle;html=1;whiteSpace=wrap;connectable=0;strokeColor=inherit;overflow=hidden;fillColor=none;top=0;left=0;bottom=0;right=0;pointerEvents=1;fontSize=16;" parent="BG2wfVKWj8V5GDxB8UTh-6" vertex="1">
          <mxGeometry x="72" width="36" height="21" as="geometry">
            <mxRectangle width="36" height="21" as="alternateBounds" />
          </mxGeometry>
        </mxCell>
        <mxCell id="BG2wfVKWj8V5GDxB8UTh-10" value="" style="shape=tableRow;horizontal=0;startSize=0;swimlaneHead=0;swimlaneBody=0;strokeColor=inherit;top=0;left=0;bottom=0;right=0;collapsible=0;dropTarget=0;fillColor=none;points=[[0,0.5],[1,0.5]];portConstraint=eastwest;fontSize=16;" parent="BG2wfVKWj8V5GDxB8UTh-1" vertex="1">
          <mxGeometry y="41" width="108" height="20" as="geometry" />
        </mxCell>
        <mxCell id="BG2wfVKWj8V5GDxB8UTh-11" value="bb" style="shape=partialRectangle;html=1;whiteSpace=wrap;connectable=0;strokeColor=inherit;overflow=hidden;fillColor=none;top=0;left=0;bottom=0;right=0;pointerEvents=1;fontSize=16;" parent="BG2wfVKWj8V5GDxB8UTh-10" vertex="1">
          <mxGeometry width="36" height="20" as="geometry">
            <mxRectangle width="36" height="20" as="alternateBounds" />
          </mxGeometry>
        </mxCell>
        <mxCell id="BG2wfVKWj8V5GDxB8UTh-12" value="2" style="shape=partialRectangle;html=1;whiteSpace=wrap;connectable=0;strokeColor=inherit;overflow=hidden;fillColor=none;top=0;left=0;bottom=0;right=0;pointerEvents=1;fontSize=16;" parent="BG2wfVKWj8V5GDxB8UTh-10" vertex="1">
          <mxGeometry x="36" width="36" height="20" as="geometry">
            <mxRectangle width="36" height="20" as="alternateBounds" />
          </mxGeometry>
        </mxCell>
        <mxCell id="BG2wfVKWj8V5GDxB8UTh-13" value="b2" style="shape=partialRectangle;html=1;whiteSpace=wrap;connectable=0;strokeColor=inherit;overflow=hidden;fillColor=none;top=0;left=0;bottom=0;right=0;pointerEvents=1;fontSize=16;" parent="BG2wfVKWj8V5GDxB8UTh-10" vertex="1">
          <mxGeometry x="72" width="36" height="20" as="geometry">
            <mxRectangle width="36" height="20" as="alternateBounds" />
          </mxGeometry>
        </mxCell>
        <mxCell id="BG2wfVKWj8V5GDxB8UTh-14" value="Spark Dataframe A" style="text;html=1;strokeColor=none;fillColor=none;align=center;verticalAlign=middle;whiteSpace=wrap;rounded=0;" parent="1" vertex="1">
          <mxGeometry x="-320" y="51" width="70" height="30" as="geometry" />
        </mxCell>
        <mxCell id="BG2wfVKWj8V5GDxB8UTh-15" value="" style="shape=flexArrow;endArrow=classic;html=1;rounded=0;" parent="1" edge="1">
          <mxGeometry width="50" height="50" relative="1" as="geometry">
            <mxPoint x="-221" y="16" as="sourcePoint" />
            <mxPoint x="-163" y="16" as="targetPoint" />
          </mxGeometry>
        </mxCell>
        <mxCell id="BG2wfVKWj8V5GDxB8UTh-17" value="T" style="ellipse;whiteSpace=wrap;html=1;aspect=fixed;" parent="1" vertex="1">
          <mxGeometry x="-126" y="-3" width="39" height="39" as="geometry" />
        </mxCell>
        <mxCell id="BG2wfVKWj8V5GDxB8UTh-18" value="Transform&lt;br&gt;&lt;font color=&quot;#0000cc&quot;&gt;UPPER&lt;/font&gt; (Col A)" style="text;html=1;strokeColor=none;fillColor=none;align=center;verticalAlign=middle;whiteSpace=wrap;rounded=0;" parent="1" vertex="1">
          <mxGeometry x="-150" y="47" width="87" height="30" as="geometry" />
        </mxCell>
        <mxCell id="BG2wfVKWj8V5GDxB8UTh-19" value="" style="shape=table;startSize=0;container=1;collapsible=0;childLayout=tableLayout;fontSize=16;" parent="1" vertex="1">
          <mxGeometry x="28" y="-14" width="108" height="61" as="geometry" />
        </mxCell>
        <mxCell id="BG2wfVKWj8V5GDxB8UTh-20" value="" style="shape=tableRow;horizontal=0;startSize=0;swimlaneHead=0;swimlaneBody=0;strokeColor=inherit;top=0;left=0;bottom=0;right=0;collapsible=0;dropTarget=0;fillColor=none;points=[[0,0.5],[1,0.5]];portConstraint=eastwest;fontSize=16;" parent="BG2wfVKWj8V5GDxB8UTh-19" vertex="1">
          <mxGeometry width="108" height="20" as="geometry" />
        </mxCell>
        <mxCell id="BG2wfVKWj8V5GDxB8UTh-21" value="A" style="shape=partialRectangle;html=1;whiteSpace=wrap;connectable=0;strokeColor=inherit;overflow=hidden;fillColor=none;top=0;left=0;bottom=0;right=0;pointerEvents=1;fontSize=16;" parent="BG2wfVKWj8V5GDxB8UTh-20" vertex="1">
          <mxGeometry width="36" height="20" as="geometry">
            <mxRectangle width="36" height="20" as="alternateBounds" />
          </mxGeometry>
        </mxCell>
        <mxCell id="BG2wfVKWj8V5GDxB8UTh-22" value="B" style="shape=partialRectangle;html=1;whiteSpace=wrap;connectable=0;strokeColor=inherit;overflow=hidden;fillColor=none;top=0;left=0;bottom=0;right=0;pointerEvents=1;fontSize=16;" parent="BG2wfVKWj8V5GDxB8UTh-20" vertex="1">
          <mxGeometry x="36" width="36" height="20" as="geometry">
            <mxRectangle width="36" height="20" as="alternateBounds" />
          </mxGeometry>
        </mxCell>
        <mxCell id="BG2wfVKWj8V5GDxB8UTh-23" value="C" style="shape=partialRectangle;html=1;whiteSpace=wrap;connectable=0;strokeColor=inherit;overflow=hidden;fillColor=none;top=0;left=0;bottom=0;right=0;pointerEvents=1;fontSize=16;" parent="BG2wfVKWj8V5GDxB8UTh-20" vertex="1">
          <mxGeometry x="72" width="36" height="20" as="geometry">
            <mxRectangle width="36" height="20" as="alternateBounds" />
          </mxGeometry>
        </mxCell>
        <mxCell id="BG2wfVKWj8V5GDxB8UTh-24" value="" style="shape=tableRow;horizontal=0;startSize=0;swimlaneHead=0;swimlaneBody=0;strokeColor=inherit;top=0;left=0;bottom=0;right=0;collapsible=0;dropTarget=0;fillColor=none;points=[[0,0.5],[1,0.5]];portConstraint=eastwest;fontSize=16;" parent="BG2wfVKWj8V5GDxB8UTh-19" vertex="1">
          <mxGeometry y="20" width="108" height="21" as="geometry" />
        </mxCell>
        <mxCell id="BG2wfVKWj8V5GDxB8UTh-25" value="aa" style="shape=partialRectangle;html=1;whiteSpace=wrap;connectable=0;strokeColor=inherit;overflow=hidden;fillColor=none;top=0;left=0;bottom=0;right=0;pointerEvents=1;fontSize=16;" parent="BG2wfVKWj8V5GDxB8UTh-24" vertex="1">
          <mxGeometry width="36" height="21" as="geometry">
            <mxRectangle width="36" height="21" as="alternateBounds" />
          </mxGeometry>
        </mxCell>
        <mxCell id="BG2wfVKWj8V5GDxB8UTh-26" value="1" style="shape=partialRectangle;html=1;whiteSpace=wrap;connectable=0;strokeColor=inherit;overflow=hidden;fillColor=none;top=0;left=0;bottom=0;right=0;pointerEvents=1;fontSize=16;" parent="BG2wfVKWj8V5GDxB8UTh-24" vertex="1">
          <mxGeometry x="36" width="36" height="21" as="geometry">
            <mxRectangle width="36" height="21" as="alternateBounds" />
          </mxGeometry>
        </mxCell>
        <mxCell id="BG2wfVKWj8V5GDxB8UTh-27" value="a1" style="shape=partialRectangle;html=1;whiteSpace=wrap;connectable=0;strokeColor=inherit;overflow=hidden;fillColor=none;top=0;left=0;bottom=0;right=0;pointerEvents=1;fontSize=16;" parent="BG2wfVKWj8V5GDxB8UTh-24" vertex="1">
          <mxGeometry x="72" width="36" height="21" as="geometry">
            <mxRectangle width="36" height="21" as="alternateBounds" />
          </mxGeometry>
        </mxCell>
        <mxCell id="BG2wfVKWj8V5GDxB8UTh-28" value="" style="shape=tableRow;horizontal=0;startSize=0;swimlaneHead=0;swimlaneBody=0;strokeColor=inherit;top=0;left=0;bottom=0;right=0;collapsible=0;dropTarget=0;fillColor=none;points=[[0,0.5],[1,0.5]];portConstraint=eastwest;fontSize=16;" parent="BG2wfVKWj8V5GDxB8UTh-19" vertex="1">
          <mxGeometry y="41" width="108" height="20" as="geometry" />
        </mxCell>
        <mxCell id="BG2wfVKWj8V5GDxB8UTh-29" value="bb" style="shape=partialRectangle;html=1;whiteSpace=wrap;connectable=0;strokeColor=inherit;overflow=hidden;fillColor=none;top=0;left=0;bottom=0;right=0;pointerEvents=1;fontSize=16;" parent="BG2wfVKWj8V5GDxB8UTh-28" vertex="1">
          <mxGeometry width="36" height="20" as="geometry">
            <mxRectangle width="36" height="20" as="alternateBounds" />
          </mxGeometry>
        </mxCell>
        <mxCell id="BG2wfVKWj8V5GDxB8UTh-30" value="2" style="shape=partialRectangle;html=1;whiteSpace=wrap;connectable=0;strokeColor=inherit;overflow=hidden;fillColor=none;top=0;left=0;bottom=0;right=0;pointerEvents=1;fontSize=16;" parent="BG2wfVKWj8V5GDxB8UTh-28" vertex="1">
          <mxGeometry x="36" width="36" height="20" as="geometry">
            <mxRectangle width="36" height="20" as="alternateBounds" />
          </mxGeometry>
        </mxCell>
        <mxCell id="BG2wfVKWj8V5GDxB8UTh-31" value="b2" style="shape=partialRectangle;html=1;whiteSpace=wrap;connectable=0;strokeColor=inherit;overflow=hidden;fillColor=none;top=0;left=0;bottom=0;right=0;pointerEvents=1;fontSize=16;" parent="BG2wfVKWj8V5GDxB8UTh-28" vertex="1">
          <mxGeometry x="72" width="36" height="20" as="geometry">
            <mxRectangle width="36" height="20" as="alternateBounds" />
          </mxGeometry>
        </mxCell>
        <mxCell id="BG2wfVKWj8V5GDxB8UTh-32" value="Spark Dataframe A" style="text;html=1;strokeColor=none;fillColor=none;align=center;verticalAlign=middle;whiteSpace=wrap;rounded=0;" parent="1" vertex="1">
          <mxGeometry x="52" y="51" width="71" height="30" as="geometry" />
        </mxCell>
        <mxCell id="BG2wfVKWj8V5GDxB8UTh-33" value="" style="shape=flexArrow;endArrow=classic;html=1;rounded=0;" parent="1" edge="1">
          <mxGeometry width="50" height="50" relative="1" as="geometry">
            <mxPoint x="-56" y="16" as="sourcePoint" />
            <mxPoint x="2" y="16" as="targetPoint" />
          </mxGeometry>
        </mxCell>
        <mxCell id="BG2wfVKWj8V5GDxB8UTh-34" value="" style="shape=table;startSize=0;container=1;collapsible=0;childLayout=tableLayout;fontSize=16;" parent="1" vertex="1">
          <mxGeometry x="-340" y="122" width="108" height="61" as="geometry" />
        </mxCell>
        <mxCell id="BG2wfVKWj8V5GDxB8UTh-35" value="" style="shape=tableRow;horizontal=0;startSize=0;swimlaneHead=0;swimlaneBody=0;strokeColor=inherit;top=0;left=0;bottom=0;right=0;collapsible=0;dropTarget=0;fillColor=none;points=[[0,0.5],[1,0.5]];portConstraint=eastwest;fontSize=16;" parent="BG2wfVKWj8V5GDxB8UTh-34" vertex="1">
          <mxGeometry width="108" height="20" as="geometry" />
        </mxCell>
        <mxCell id="BG2wfVKWj8V5GDxB8UTh-36" value="A" style="shape=partialRectangle;html=1;whiteSpace=wrap;connectable=0;strokeColor=inherit;overflow=hidden;fillColor=none;top=0;left=0;bottom=0;right=0;pointerEvents=1;fontSize=16;" parent="BG2wfVKWj8V5GDxB8UTh-35" vertex="1">
          <mxGeometry width="36" height="20" as="geometry">
            <mxRectangle width="36" height="20" as="alternateBounds" />
          </mxGeometry>
        </mxCell>
        <mxCell id="BG2wfVKWj8V5GDxB8UTh-37" value="B" style="shape=partialRectangle;html=1;whiteSpace=wrap;connectable=0;strokeColor=inherit;overflow=hidden;fillColor=none;top=0;left=0;bottom=0;right=0;pointerEvents=1;fontSize=16;" parent="BG2wfVKWj8V5GDxB8UTh-35" vertex="1">
          <mxGeometry x="36" width="36" height="20" as="geometry">
            <mxRectangle width="36" height="20" as="alternateBounds" />
          </mxGeometry>
        </mxCell>
        <mxCell id="BG2wfVKWj8V5GDxB8UTh-38" value="C" style="shape=partialRectangle;html=1;whiteSpace=wrap;connectable=0;strokeColor=inherit;overflow=hidden;fillColor=none;top=0;left=0;bottom=0;right=0;pointerEvents=1;fontSize=16;" parent="BG2wfVKWj8V5GDxB8UTh-35" vertex="1">
          <mxGeometry x="72" width="36" height="20" as="geometry">
            <mxRectangle width="36" height="20" as="alternateBounds" />
          </mxGeometry>
        </mxCell>
        <mxCell id="BG2wfVKWj8V5GDxB8UTh-39" value="" style="shape=tableRow;horizontal=0;startSize=0;swimlaneHead=0;swimlaneBody=0;strokeColor=inherit;top=0;left=0;bottom=0;right=0;collapsible=0;dropTarget=0;fillColor=none;points=[[0,0.5],[1,0.5]];portConstraint=eastwest;fontSize=16;" parent="BG2wfVKWj8V5GDxB8UTh-34" vertex="1">
          <mxGeometry y="20" width="108" height="21" as="geometry" />
        </mxCell>
        <mxCell id="BG2wfVKWj8V5GDxB8UTh-40" value="aa" style="shape=partialRectangle;html=1;whiteSpace=wrap;connectable=0;strokeColor=inherit;overflow=hidden;fillColor=none;top=0;left=0;bottom=0;right=0;pointerEvents=1;fontSize=16;" parent="BG2wfVKWj8V5GDxB8UTh-39" vertex="1">
          <mxGeometry width="36" height="21" as="geometry">
            <mxRectangle width="36" height="21" as="alternateBounds" />
          </mxGeometry>
        </mxCell>
        <mxCell id="BG2wfVKWj8V5GDxB8UTh-41" value="1" style="shape=partialRectangle;html=1;whiteSpace=wrap;connectable=0;strokeColor=inherit;overflow=hidden;fillColor=none;top=0;left=0;bottom=0;right=0;pointerEvents=1;fontSize=16;" parent="BG2wfVKWj8V5GDxB8UTh-39" vertex="1">
          <mxGeometry x="36" width="36" height="21" as="geometry">
            <mxRectangle width="36" height="21" as="alternateBounds" />
          </mxGeometry>
        </mxCell>
        <mxCell id="BG2wfVKWj8V5GDxB8UTh-42" value="a1" style="shape=partialRectangle;html=1;whiteSpace=wrap;connectable=0;strokeColor=inherit;overflow=hidden;fillColor=none;top=0;left=0;bottom=0;right=0;pointerEvents=1;fontSize=16;" parent="BG2wfVKWj8V5GDxB8UTh-39" vertex="1">
          <mxGeometry x="72" width="36" height="21" as="geometry">
            <mxRectangle width="36" height="21" as="alternateBounds" />
          </mxGeometry>
        </mxCell>
        <mxCell id="BG2wfVKWj8V5GDxB8UTh-43" value="" style="shape=tableRow;horizontal=0;startSize=0;swimlaneHead=0;swimlaneBody=0;strokeColor=inherit;top=0;left=0;bottom=0;right=0;collapsible=0;dropTarget=0;fillColor=none;points=[[0,0.5],[1,0.5]];portConstraint=eastwest;fontSize=16;" parent="BG2wfVKWj8V5GDxB8UTh-34" vertex="1">
          <mxGeometry y="41" width="108" height="20" as="geometry" />
        </mxCell>
        <mxCell id="BG2wfVKWj8V5GDxB8UTh-44" value="bb" style="shape=partialRectangle;html=1;whiteSpace=wrap;connectable=0;strokeColor=inherit;overflow=hidden;fillColor=none;top=0;left=0;bottom=0;right=0;pointerEvents=1;fontSize=16;" parent="BG2wfVKWj8V5GDxB8UTh-43" vertex="1">
          <mxGeometry width="36" height="20" as="geometry">
            <mxRectangle width="36" height="20" as="alternateBounds" />
          </mxGeometry>
        </mxCell>
        <mxCell id="BG2wfVKWj8V5GDxB8UTh-45" value="2" style="shape=partialRectangle;html=1;whiteSpace=wrap;connectable=0;strokeColor=inherit;overflow=hidden;fillColor=none;top=0;left=0;bottom=0;right=0;pointerEvents=1;fontSize=16;" parent="BG2wfVKWj8V5GDxB8UTh-43" vertex="1">
          <mxGeometry x="36" width="36" height="20" as="geometry">
            <mxRectangle width="36" height="20" as="alternateBounds" />
          </mxGeometry>
        </mxCell>
        <mxCell id="BG2wfVKWj8V5GDxB8UTh-46" value="b2" style="shape=partialRectangle;html=1;whiteSpace=wrap;connectable=0;strokeColor=inherit;overflow=hidden;fillColor=none;top=0;left=0;bottom=0;right=0;pointerEvents=1;fontSize=16;" parent="BG2wfVKWj8V5GDxB8UTh-43" vertex="1">
          <mxGeometry x="72" width="36" height="20" as="geometry">
            <mxRectangle width="36" height="20" as="alternateBounds" />
          </mxGeometry>
        </mxCell>
        <mxCell id="BG2wfVKWj8V5GDxB8UTh-47" value="Spark Dataframe A" style="text;html=1;strokeColor=none;fillColor=none;align=center;verticalAlign=middle;whiteSpace=wrap;rounded=0;" parent="1" vertex="1">
          <mxGeometry x="-316" y="187" width="70" height="30" as="geometry" />
        </mxCell>
        <mxCell id="BG2wfVKWj8V5GDxB8UTh-48" value="" style="shape=flexArrow;endArrow=classic;html=1;rounded=0;" parent="1" edge="1">
          <mxGeometry width="50" height="50" relative="1" as="geometry">
            <mxPoint x="-217" y="152" as="sourcePoint" />
            <mxPoint x="-159" y="152" as="targetPoint" />
          </mxGeometry>
        </mxCell>
        <mxCell id="BG2wfVKWj8V5GDxB8UTh-49" value="T" style="ellipse;whiteSpace=wrap;html=1;aspect=fixed;" parent="1" vertex="1">
          <mxGeometry x="-126" y="131" width="39" height="39" as="geometry" />
        </mxCell>
        <mxCell id="BG2wfVKWj8V5GDxB8UTh-50" value="Transform&lt;br&gt;&lt;font color=&quot;#0000cc&quot;&gt;UPPER&lt;/font&gt; (Col A)" style="text;html=1;strokeColor=none;fillColor=none;align=center;verticalAlign=middle;whiteSpace=wrap;rounded=0;" parent="1" vertex="1">
          <mxGeometry x="-143" y="183" width="87" height="30" as="geometry" />
        </mxCell>
        <mxCell id="BG2wfVKWj8V5GDxB8UTh-51" value="" style="shape=table;startSize=0;container=1;collapsible=0;childLayout=tableLayout;fontSize=16;" parent="1" vertex="1">
          <mxGeometry x="32" y="122" width="108" height="61" as="geometry" />
        </mxCell>
        <mxCell id="BG2wfVKWj8V5GDxB8UTh-52" value="" style="shape=tableRow;horizontal=0;startSize=0;swimlaneHead=0;swimlaneBody=0;strokeColor=inherit;top=0;left=0;bottom=0;right=0;collapsible=0;dropTarget=0;fillColor=none;points=[[0,0.5],[1,0.5]];portConstraint=eastwest;fontSize=16;" parent="BG2wfVKWj8V5GDxB8UTh-51" vertex="1">
          <mxGeometry width="108" height="20" as="geometry" />
        </mxCell>
        <mxCell id="BG2wfVKWj8V5GDxB8UTh-53" value="A" style="shape=partialRectangle;html=1;whiteSpace=wrap;connectable=0;strokeColor=inherit;overflow=hidden;fillColor=none;top=0;left=0;bottom=0;right=0;pointerEvents=1;fontSize=16;" parent="BG2wfVKWj8V5GDxB8UTh-52" vertex="1">
          <mxGeometry width="36" height="20" as="geometry">
            <mxRectangle width="36" height="20" as="alternateBounds" />
          </mxGeometry>
        </mxCell>
        <mxCell id="BG2wfVKWj8V5GDxB8UTh-54" value="B" style="shape=partialRectangle;html=1;whiteSpace=wrap;connectable=0;strokeColor=inherit;overflow=hidden;fillColor=none;top=0;left=0;bottom=0;right=0;pointerEvents=1;fontSize=16;" parent="BG2wfVKWj8V5GDxB8UTh-52" vertex="1">
          <mxGeometry x="36" width="36" height="20" as="geometry">
            <mxRectangle width="36" height="20" as="alternateBounds" />
          </mxGeometry>
        </mxCell>
        <mxCell id="BG2wfVKWj8V5GDxB8UTh-55" value="C" style="shape=partialRectangle;html=1;whiteSpace=wrap;connectable=0;strokeColor=inherit;overflow=hidden;fillColor=none;top=0;left=0;bottom=0;right=0;pointerEvents=1;fontSize=16;" parent="BG2wfVKWj8V5GDxB8UTh-52" vertex="1">
          <mxGeometry x="72" width="36" height="20" as="geometry">
            <mxRectangle width="36" height="20" as="alternateBounds" />
          </mxGeometry>
        </mxCell>
        <mxCell id="BG2wfVKWj8V5GDxB8UTh-56" value="" style="shape=tableRow;horizontal=0;startSize=0;swimlaneHead=0;swimlaneBody=0;strokeColor=inherit;top=0;left=0;bottom=0;right=0;collapsible=0;dropTarget=0;fillColor=none;points=[[0,0.5],[1,0.5]];portConstraint=eastwest;fontSize=16;" parent="BG2wfVKWj8V5GDxB8UTh-51" vertex="1">
          <mxGeometry y="20" width="108" height="21" as="geometry" />
        </mxCell>
        <mxCell id="BG2wfVKWj8V5GDxB8UTh-57" value="&lt;font color=&quot;#0000cc&quot;&gt;AA&lt;/font&gt;" style="shape=partialRectangle;html=1;whiteSpace=wrap;connectable=0;strokeColor=inherit;overflow=hidden;fillColor=none;top=0;left=0;bottom=0;right=0;pointerEvents=1;fontSize=16;" parent="BG2wfVKWj8V5GDxB8UTh-56" vertex="1">
          <mxGeometry width="36" height="21" as="geometry">
            <mxRectangle width="36" height="21" as="alternateBounds" />
          </mxGeometry>
        </mxCell>
        <mxCell id="BG2wfVKWj8V5GDxB8UTh-58" value="1" style="shape=partialRectangle;html=1;whiteSpace=wrap;connectable=0;strokeColor=inherit;overflow=hidden;fillColor=none;top=0;left=0;bottom=0;right=0;pointerEvents=1;fontSize=16;" parent="BG2wfVKWj8V5GDxB8UTh-56" vertex="1">
          <mxGeometry x="36" width="36" height="21" as="geometry">
            <mxRectangle width="36" height="21" as="alternateBounds" />
          </mxGeometry>
        </mxCell>
        <mxCell id="BG2wfVKWj8V5GDxB8UTh-59" value="a1" style="shape=partialRectangle;html=1;whiteSpace=wrap;connectable=0;strokeColor=inherit;overflow=hidden;fillColor=none;top=0;left=0;bottom=0;right=0;pointerEvents=1;fontSize=16;" parent="BG2wfVKWj8V5GDxB8UTh-56" vertex="1">
          <mxGeometry x="72" width="36" height="21" as="geometry">
            <mxRectangle width="36" height="21" as="alternateBounds" />
          </mxGeometry>
        </mxCell>
        <mxCell id="BG2wfVKWj8V5GDxB8UTh-60" value="" style="shape=tableRow;horizontal=0;startSize=0;swimlaneHead=0;swimlaneBody=0;strokeColor=inherit;top=0;left=0;bottom=0;right=0;collapsible=0;dropTarget=0;fillColor=none;points=[[0,0.5],[1,0.5]];portConstraint=eastwest;fontSize=16;" parent="BG2wfVKWj8V5GDxB8UTh-51" vertex="1">
          <mxGeometry y="41" width="108" height="20" as="geometry" />
        </mxCell>
        <mxCell id="BG2wfVKWj8V5GDxB8UTh-61" value="&lt;font color=&quot;#0000cc&quot;&gt;BB&lt;/font&gt;" style="shape=partialRectangle;html=1;whiteSpace=wrap;connectable=0;strokeColor=inherit;overflow=hidden;fillColor=none;top=0;left=0;bottom=0;right=0;pointerEvents=1;fontSize=16;" parent="BG2wfVKWj8V5GDxB8UTh-60" vertex="1">
          <mxGeometry width="36" height="20" as="geometry">
            <mxRectangle width="36" height="20" as="alternateBounds" />
          </mxGeometry>
        </mxCell>
        <mxCell id="BG2wfVKWj8V5GDxB8UTh-62" value="2" style="shape=partialRectangle;html=1;whiteSpace=wrap;connectable=0;strokeColor=inherit;overflow=hidden;fillColor=none;top=0;left=0;bottom=0;right=0;pointerEvents=1;fontSize=16;" parent="BG2wfVKWj8V5GDxB8UTh-60" vertex="1">
          <mxGeometry x="36" width="36" height="20" as="geometry">
            <mxRectangle width="36" height="20" as="alternateBounds" />
          </mxGeometry>
        </mxCell>
        <mxCell id="BG2wfVKWj8V5GDxB8UTh-63" value="b2" style="shape=partialRectangle;html=1;whiteSpace=wrap;connectable=0;strokeColor=inherit;overflow=hidden;fillColor=none;top=0;left=0;bottom=0;right=0;pointerEvents=1;fontSize=16;" parent="BG2wfVKWj8V5GDxB8UTh-60" vertex="1">
          <mxGeometry x="72" width="36" height="20" as="geometry">
            <mxRectangle width="36" height="20" as="alternateBounds" />
          </mxGeometry>
        </mxCell>
        <mxCell id="BG2wfVKWj8V5GDxB8UTh-64" value="New Spark Dataframe B" style="text;html=1;strokeColor=none;fillColor=none;align=center;verticalAlign=middle;whiteSpace=wrap;rounded=0;" parent="1" vertex="1">
          <mxGeometry x="56" y="187" width="71" height="30" as="geometry" />
        </mxCell>
        <mxCell id="BG2wfVKWj8V5GDxB8UTh-65" value="" style="shape=flexArrow;endArrow=classic;html=1;rounded=0;" parent="1" edge="1">
          <mxGeometry width="50" height="50" relative="1" as="geometry">
            <mxPoint x="-53" y="152" as="sourcePoint" />
            <mxPoint x="5" y="152" as="targetPoint" />
          </mxGeometry>
        </mxCell>
      </root>
    </mxGraphModel>
  </diagram>
  <diagram id="FPbKlmn0ce2Rr6nph7QN" name="Narrow Transformations">
    <mxGraphModel dx="2474" dy="1534" grid="0" gridSize="10" guides="1" tooltips="1" connect="1" arrows="1" fold="1" page="0" pageScale="1" pageWidth="1100" pageHeight="850" math="0" shadow="0">
      <root>
        <mxCell id="0" />
        <mxCell id="1" parent="0" />
        <mxCell id="d1QrxgbG-vt1Yi9340Xp-1" value="Narrow Transformations" style="fillColor=#EFF0F3;strokeColor=none;dashed=0;verticalAlign=top;fontStyle=0;fontColor=#232F3D;whiteSpace=wrap;html=1;" vertex="1" parent="1">
          <mxGeometry x="-169" y="-24" width="636" height="289" as="geometry" />
        </mxCell>
        <mxCell id="d1QrxgbG-vt1Yi9340Xp-6" value="Map ( upper (key))" style="edgeStyle=orthogonalEdgeStyle;rounded=0;orthogonalLoop=1;jettySize=auto;html=1;" edge="1" parent="1" source="d1QrxgbG-vt1Yi9340Xp-2" target="d1QrxgbG-vt1Yi9340Xp-5">
          <mxGeometry relative="1" as="geometry" />
        </mxCell>
        <mxCell id="d1QrxgbG-vt1Yi9340Xp-2" value="(Moustafa, 12)" style="rounded=1;whiteSpace=wrap;html=1;" vertex="1" parent="1">
          <mxGeometry x="-139" y="22" width="103" height="47" as="geometry" />
        </mxCell>
        <mxCell id="d1QrxgbG-vt1Yi9340Xp-9" style="edgeStyle=orthogonalEdgeStyle;rounded=0;orthogonalLoop=1;jettySize=auto;html=1;entryX=0;entryY=0.5;entryDx=0;entryDy=0;" edge="1" parent="1" source="d1QrxgbG-vt1Yi9340Xp-3" target="d1QrxgbG-vt1Yi9340Xp-7">
          <mxGeometry relative="1" as="geometry" />
        </mxCell>
        <mxCell id="d1QrxgbG-vt1Yi9340Xp-3" value="(Amr, 11)" style="rounded=1;whiteSpace=wrap;html=1;" vertex="1" parent="1">
          <mxGeometry x="-139" y="113" width="103" height="47" as="geometry" />
        </mxCell>
        <mxCell id="d1QrxgbG-vt1Yi9340Xp-10" style="edgeStyle=orthogonalEdgeStyle;rounded=0;orthogonalLoop=1;jettySize=auto;html=1;" edge="1" parent="1" source="d1QrxgbG-vt1Yi9340Xp-4" target="d1QrxgbG-vt1Yi9340Xp-8">
          <mxGeometry relative="1" as="geometry" />
        </mxCell>
        <mxCell id="d1QrxgbG-vt1Yi9340Xp-4" value="(Seif, 2)" style="rounded=1;whiteSpace=wrap;html=1;" vertex="1" parent="1">
          <mxGeometry x="-139" y="204" width="103" height="47" as="geometry" />
        </mxCell>
        <mxCell id="d1QrxgbG-vt1Yi9340Xp-12" value="Filter(V&amp;gt;10)" style="edgeStyle=orthogonalEdgeStyle;rounded=0;orthogonalLoop=1;jettySize=auto;html=1;entryX=0;entryY=0.5;entryDx=0;entryDy=0;" edge="1" parent="1" source="d1QrxgbG-vt1Yi9340Xp-5" target="d1QrxgbG-vt1Yi9340Xp-11">
          <mxGeometry relative="1" as="geometry" />
        </mxCell>
        <mxCell id="d1QrxgbG-vt1Yi9340Xp-5" value="(MOUSTAFA, 12)" style="rounded=1;whiteSpace=wrap;html=1;" vertex="1" parent="1">
          <mxGeometry x="101" y="22" width="103" height="47" as="geometry" />
        </mxCell>
        <mxCell id="d1QrxgbG-vt1Yi9340Xp-15" value="Filter(V&amp;gt;10)" style="edgeStyle=orthogonalEdgeStyle;rounded=0;orthogonalLoop=1;jettySize=auto;html=1;entryX=0;entryY=0.5;entryDx=0;entryDy=0;" edge="1" parent="1" source="d1QrxgbG-vt1Yi9340Xp-7" target="d1QrxgbG-vt1Yi9340Xp-13">
          <mxGeometry relative="1" as="geometry" />
        </mxCell>
        <mxCell id="d1QrxgbG-vt1Yi9340Xp-7" value="(AMR, 11)" style="rounded=1;whiteSpace=wrap;html=1;" vertex="1" parent="1">
          <mxGeometry x="101" y="113" width="103" height="47" as="geometry" />
        </mxCell>
        <mxCell id="d1QrxgbG-vt1Yi9340Xp-16" value="Filter(V&amp;gt;10)" style="edgeStyle=orthogonalEdgeStyle;rounded=0;orthogonalLoop=1;jettySize=auto;html=1;" edge="1" parent="1" source="d1QrxgbG-vt1Yi9340Xp-8" target="d1QrxgbG-vt1Yi9340Xp-14">
          <mxGeometry relative="1" as="geometry" />
        </mxCell>
        <mxCell id="d1QrxgbG-vt1Yi9340Xp-8" value="(SEIF, 2)" style="rounded=1;whiteSpace=wrap;html=1;" vertex="1" parent="1">
          <mxGeometry x="98" y="204" width="103" height="47" as="geometry" />
        </mxCell>
        <mxCell id="d1QrxgbG-vt1Yi9340Xp-11" value="(MOUSTAFA, 12)" style="rounded=1;whiteSpace=wrap;html=1;" vertex="1" parent="1">
          <mxGeometry x="325" y="22" width="103" height="47" as="geometry" />
        </mxCell>
        <mxCell id="d1QrxgbG-vt1Yi9340Xp-13" value="(AMR, 11)" style="rounded=1;whiteSpace=wrap;html=1;" vertex="1" parent="1">
          <mxGeometry x="325" y="113" width="103" height="47" as="geometry" />
        </mxCell>
        <mxCell id="d1QrxgbG-vt1Yi9340Xp-14" value="" style="rounded=1;whiteSpace=wrap;html=1;" vertex="1" parent="1">
          <mxGeometry x="325" y="204" width="103" height="47" as="geometry" />
        </mxCell>
      </root>
    </mxGraphModel>
  </diagram>
  <diagram id="OEehR0JgFR4HY5xeefGN" name="Page-14">
    <mxGraphModel dx="1706" dy="1214" grid="0" gridSize="10" guides="1" tooltips="1" connect="1" arrows="1" fold="1" page="0" pageScale="1" pageWidth="1100" pageHeight="850" math="0" shadow="0">
      <root>
        <mxCell id="0" />
        <mxCell id="1" parent="0" />
        <mxCell id="lijCMNuoPqMJKnMW2qVy-1" value="Wide Transformations&lt;br&gt;(Group By Key)" style="fillColor=#EFF0F3;strokeColor=none;dashed=0;verticalAlign=top;fontStyle=0;fontColor=#232F3D;whiteSpace=wrap;html=1;" parent="1" vertex="1">
          <mxGeometry x="-169" y="-24" width="636" height="395" as="geometry" />
        </mxCell>
        <mxCell id="lijCMNuoPqMJKnMW2qVy-26" style="rounded=0;orthogonalLoop=1;jettySize=auto;html=1;strokeColor=#0000CC;" parent="1" source="lijCMNuoPqMJKnMW2qVy-3" target="lijCMNuoPqMJKnMW2qVy-23" edge="1">
          <mxGeometry relative="1" as="geometry" />
        </mxCell>
        <mxCell id="lijCMNuoPqMJKnMW2qVy-3" value="(Moustafa, London)" style="rounded=1;whiteSpace=wrap;html=1;" parent="1" vertex="1">
          <mxGeometry x="-139" y="22" width="176" height="42" as="geometry" />
        </mxCell>
        <mxCell id="lijCMNuoPqMJKnMW2qVy-32" style="rounded=0;orthogonalLoop=1;jettySize=auto;html=1;entryX=0;entryY=0.5;entryDx=0;entryDy=0;exitX=1;exitY=0.5;exitDx=0;exitDy=0;strokeColor=#0000CC;" parent="1" source="lijCMNuoPqMJKnMW2qVy-17" target="lijCMNuoPqMJKnMW2qVy-23" edge="1">
          <mxGeometry relative="1" as="geometry" />
        </mxCell>
        <mxCell id="lijCMNuoPqMJKnMW2qVy-17" value="(Moustafa, Cairo)" style="rounded=1;whiteSpace=wrap;html=1;" parent="1" vertex="1">
          <mxGeometry x="-139" y="297" width="176" height="42" as="geometry" />
        </mxCell>
        <mxCell id="lijCMNuoPqMJKnMW2qVy-27" style="rounded=0;orthogonalLoop=1;jettySize=auto;html=1;entryX=0;entryY=0.5;entryDx=0;entryDy=0;exitX=1;exitY=0.5;exitDx=0;exitDy=0;strokeColor=#0000CC;" parent="1" source="lijCMNuoPqMJKnMW2qVy-18" target="lijCMNuoPqMJKnMW2qVy-23" edge="1">
          <mxGeometry relative="1" as="geometry" />
        </mxCell>
        <mxCell id="lijCMNuoPqMJKnMW2qVy-18" value="(Moustafa, Krakow)" style="rounded=1;whiteSpace=wrap;html=1;" parent="1" vertex="1">
          <mxGeometry x="-139" y="130" width="176" height="42" as="geometry" />
        </mxCell>
        <mxCell id="lijCMNuoPqMJKnMW2qVy-28" style="rounded=0;orthogonalLoop=1;jettySize=auto;html=1;entryX=0;entryY=0.5;entryDx=0;entryDy=0;strokeColor=#CC0000;" parent="1" source="lijCMNuoPqMJKnMW2qVy-19" target="lijCMNuoPqMJKnMW2qVy-24" edge="1">
          <mxGeometry relative="1" as="geometry" />
        </mxCell>
        <mxCell id="lijCMNuoPqMJKnMW2qVy-19" value="(Amr, Cairo)" style="rounded=1;whiteSpace=wrap;html=1;" parent="1" vertex="1">
          <mxGeometry x="-140" y="76" width="176" height="42" as="geometry" />
        </mxCell>
        <mxCell id="lijCMNuoPqMJKnMW2qVy-29" style="rounded=0;orthogonalLoop=1;jettySize=auto;html=1;entryX=0;entryY=0.5;entryDx=0;entryDy=0;strokeColor=#CC0000;" parent="1" target="lijCMNuoPqMJKnMW2qVy-24" edge="1">
          <mxGeometry relative="1" as="geometry">
            <mxPoint x="40" y="258" as="sourcePoint" />
          </mxGeometry>
        </mxCell>
        <mxCell id="lijCMNuoPqMJKnMW2qVy-20" value="(Amr, Warsaw)" style="rounded=1;whiteSpace=wrap;html=1;" parent="1" vertex="1">
          <mxGeometry x="-137" y="240" width="176" height="42" as="geometry" />
        </mxCell>
        <mxCell id="lijCMNuoPqMJKnMW2qVy-31" style="rounded=0;orthogonalLoop=1;jettySize=auto;html=1;entryX=0;entryY=0.5;entryDx=0;entryDy=0;exitX=1;exitY=0.5;exitDx=0;exitDy=0;strokeColor=#009900;" parent="1" source="lijCMNuoPqMJKnMW2qVy-21" target="lijCMNuoPqMJKnMW2qVy-25" edge="1">
          <mxGeometry relative="1" as="geometry" />
        </mxCell>
        <mxCell id="lijCMNuoPqMJKnMW2qVy-21" value="(Seif, Krakow)" style="rounded=1;whiteSpace=wrap;html=1;" parent="1" vertex="1">
          <mxGeometry x="-140" y="192" width="176" height="42" as="geometry" />
        </mxCell>
        <mxCell id="lijCMNuoPqMJKnMW2qVy-23" value="(Moustafa , [Cairo, Krakow, London])" style="rounded=1;whiteSpace=wrap;html=1;" parent="1" vertex="1">
          <mxGeometry x="234" y="22" width="176" height="42" as="geometry" />
        </mxCell>
        <mxCell id="lijCMNuoPqMJKnMW2qVy-24" value="(Amr, [Cairo, Warsaw])" style="rounded=1;whiteSpace=wrap;html=1;" parent="1" vertex="1">
          <mxGeometry x="234" y="161" width="176" height="42" as="geometry" />
        </mxCell>
        <mxCell id="lijCMNuoPqMJKnMW2qVy-25" value="(Seif, [Krakow])" style="rounded=1;whiteSpace=wrap;html=1;" parent="1" vertex="1">
          <mxGeometry x="234" y="300" width="176" height="42" as="geometry" />
        </mxCell>
      </root>
    </mxGraphModel>
  </diagram>
  <diagram id="gTRTJ5fN2yiaL48KdnNa" name="Page-15">
    <mxGraphModel dx="1306" dy="814" grid="0" gridSize="10" guides="1" tooltips="1" connect="1" arrows="1" fold="1" page="1" pageScale="1" pageWidth="1100" pageHeight="850" math="0" shadow="0">
      <root>
        <mxCell id="0" />
        <mxCell id="1" parent="0" />
        <mxCell id="iJjDIvYxeDw9CdfahS6X-1" value="&lt;font color=&quot;#000000&quot; style=&quot;font-size: 15px;&quot;&gt;Cluster Nodes&lt;br&gt;&lt;/font&gt;" style="fillColor=none;strokeColor=#5A6C86;dashed=1;verticalAlign=top;fontStyle=0;fontColor=#5A6C86;whiteSpace=wrap;html=1;shadow=0;sketch=1;curveFitting=1;jiggle=2;" vertex="1" parent="1">
          <mxGeometry x="72" y="104" width="470" height="524" as="geometry" />
        </mxCell>
        <mxCell id="iJjDIvYxeDw9CdfahS6X-2" value="" style="whiteSpace=wrap;html=1;aspect=fixed;sketch=1;curveFitting=1;jiggle=2;shadow=0;" vertex="1" parent="1">
          <mxGeometry x="140" y="300" width="100" height="100" as="geometry" />
        </mxCell>
        <mxCell id="iJjDIvYxeDw9CdfahS6X-3" value="" style="whiteSpace=wrap;html=1;aspect=fixed;sketch=1;curveFitting=1;jiggle=2;shadow=0;" vertex="1" parent="1">
          <mxGeometry x="400" y="135" width="124" height="124" as="geometry" />
        </mxCell>
        <mxCell id="iJjDIvYxeDw9CdfahS6X-4" value="" style="whiteSpace=wrap;html=1;aspect=fixed;sketch=1;curveFitting=1;jiggle=2;shadow=0;" vertex="1" parent="1">
          <mxGeometry x="400" y="288" width="123" height="123" as="geometry" />
        </mxCell>
        <mxCell id="iJjDIvYxeDw9CdfahS6X-5" value="" style="whiteSpace=wrap;html=1;aspect=fixed;sketch=1;curveFitting=1;jiggle=2;shadow=0;" vertex="1" parent="1">
          <mxGeometry x="400" y="444" width="127" height="127" as="geometry" />
        </mxCell>
        <mxCell id="iJjDIvYxeDw9CdfahS6X-6" style="edgeStyle=orthogonalEdgeStyle;rounded=0;orthogonalLoop=1;jettySize=auto;html=1;entryX=0;entryY=0.5;entryDx=0;entryDy=0;curved=1;endArrow=none;endFill=0;shadow=0;sketch=1;curveFitting=1;jiggle=2;" edge="1" parent="1" target="iJjDIvYxeDw9CdfahS6X-5">
          <mxGeometry relative="1" as="geometry">
            <mxPoint x="190" y="352" as="sourcePoint" />
            <mxPoint x="351.1100000000001" y="545.27" as="targetPoint" />
            <Array as="points">
              <mxPoint x="190" y="353" />
              <mxPoint x="304" y="353" />
              <mxPoint x="304" y="492" />
              <mxPoint x="400" y="492" />
            </Array>
          </mxGeometry>
        </mxCell>
        <mxCell id="iJjDIvYxeDw9CdfahS6X-7" value="" style="ellipse;whiteSpace=wrap;html=1;aspect=fixed;fillColor=#1ba1e2;fontColor=#ffffff;strokeColor=#006EAF;shadow=0;" vertex="1" parent="1">
          <mxGeometry x="170.5" y="330.5" width="39" height="39" as="geometry" />
        </mxCell>
        <mxCell id="iJjDIvYxeDw9CdfahS6X-8" value="" style="ellipse;whiteSpace=wrap;html=1;aspect=fixed;fillColor=#60a917;fontColor=#ffffff;strokeColor=#2D7600;shadow=0;" vertex="1" parent="1">
          <mxGeometry x="442" y="166" width="39" height="39" as="geometry" />
        </mxCell>
        <mxCell id="iJjDIvYxeDw9CdfahS6X-9" value="" style="ellipse;whiteSpace=wrap;html=1;aspect=fixed;fillColor=#60a917;fontColor=#ffffff;strokeColor=#2D7600;shadow=0;" vertex="1" parent="1">
          <mxGeometry x="444" y="321" width="39" height="39" as="geometry" />
        </mxCell>
        <mxCell id="iJjDIvYxeDw9CdfahS6X-10" value="" style="ellipse;whiteSpace=wrap;html=1;aspect=fixed;fillColor=#60a917;fontColor=#ffffff;strokeColor=#2D7600;shadow=0;" vertex="1" parent="1">
          <mxGeometry x="442" y="481" width="39" height="39" as="geometry" />
        </mxCell>
        <mxCell id="iJjDIvYxeDw9CdfahS6X-14" style="edgeStyle=orthogonalEdgeStyle;rounded=0;orthogonalLoop=1;jettySize=auto;html=1;entryX=0;entryY=0.5;entryDx=0;entryDy=0;curved=1;endArrow=none;endFill=0;shadow=0;sketch=1;curveFitting=1;jiggle=2;" edge="1" parent="1" source="iJjDIvYxeDw9CdfahS6X-7" target="iJjDIvYxeDw9CdfahS6X-4">
          <mxGeometry relative="1" as="geometry" />
        </mxCell>
        <mxCell id="iJjDIvYxeDw9CdfahS6X-15" style="edgeStyle=orthogonalEdgeStyle;rounded=0;orthogonalLoop=1;jettySize=auto;html=1;entryX=0;entryY=0.5;entryDx=0;entryDy=0;curved=1;endArrow=none;endFill=0;shadow=0;sketch=1;curveFitting=1;jiggle=2;" edge="1" parent="1" source="iJjDIvYxeDw9CdfahS6X-2" target="iJjDIvYxeDw9CdfahS6X-3">
          <mxGeometry relative="1" as="geometry" />
        </mxCell>
        <mxCell id="iJjDIvYxeDw9CdfahS6X-17" value="&lt;font style=&quot;font-size: 14px;&quot;&gt;Cluster &lt;br&gt;Driver Node&lt;/font&gt;" style="text;html=1;strokeColor=none;fillColor=none;align=center;verticalAlign=middle;whiteSpace=wrap;rounded=0;" vertex="1" parent="1">
          <mxGeometry x="132" y="402" width="116" height="30" as="geometry" />
        </mxCell>
        <mxCell id="iJjDIvYxeDw9CdfahS6X-18" value="Cluster&lt;br&gt;Worker Nodes" style="text;html=1;strokeColor=none;fillColor=none;align=center;verticalAlign=middle;whiteSpace=wrap;rounded=0;" vertex="1" parent="1">
          <mxGeometry x="420" y="573" width="79" height="30" as="geometry" />
        </mxCell>
      </root>
    </mxGraphModel>
  </diagram>
</mxfile>
